<?xml version="1.0" encoding="UTF-8" standalone="no"?>
<!-- Created with Inkscape (http://www.inkscape.org/) -->
<svg
   xmlns:svg="http://www.w3.org/2000/svg"
   xmlns="http://www.w3.org/2000/svg"
   version="1.0"
   width="1133.5039"
   height="424.8425"
   id="svg2543">
  <defs
     id="defs2545">
    <linearGradient
       x1="44.970001"
       y1="265.80499"
       x2="41.7384"
       y2="264.51999"
       id="id0"
       gradientUnits="userSpaceOnUse">
   <stop
   id="stop9"
   style="stop-color:#da9a22;stop-opacity:1"
   offset="0" />

   <stop
   id="stop11"
   style="stop-color:#a84921;stop-opacity:1"
   offset="0.50196099" />

   <stop
   id="stop13"
   style="stop-color:#530010;stop-opacity:1"
   offset="1" />

  </linearGradient>
    <clipPath
       id="clipPath2626">
      <path
         d="M 0,850.38 L 1386.12,850.38 L 1386.12,0 L 0,0 L 0,850.38 z"
         id="path2628" />
    </clipPath>
    <clipPath
       id="clipPath2618">
      <path
         d="M -0.071,850.197 L 1386.071,850.197 L 1386.071,-0.197 L -0.071,-0.197 L -0.071,850.197 z"
         id="path2620" />
    </clipPath>
    <clipPath
       id="clipPath2610">
      <path
         d="M 707.104,789.871 L 965.652,789.871 L 965.652,658.027 L 707.104,658.027 L 707.104,789.871 z"
         id="path2612" />
    </clipPath>
    <clipPath
       id="clipPath2602">
      <path
         d="M 0,850.38 L 1386.12,850.38 L 1386.12,0 L 0,0 L 0,850.38 z"
         id="path2604" />
    </clipPath>
    <clipPath
       id="clipPath2594">
      <path
         d="M -0.071,850.197 L 1386.071,850.197 L 1386.071,-0.197 L -0.071,-0.197 L -0.071,850.197 z"
         id="path2596" />
    </clipPath>
    <clipPath
       id="clipPath3592">
      <path
         d="M 0,841.02 L 594.96,841.02 L 594.96,0.06 L 0,0.06 L 0,841.02 z"
         id="path3594" />
    </clipPath>
    <clipPath
       id="clipPath3584">
      <path
         d="M -1,842 L 596,842 L 596,-2 L -1,-2 L -1,842 z"
         id="path3586" />
    </clipPath>
    <clipPath
       id="clipPath3576">
      <path
         d="M 203.09,192.6 L 408.35,192.6 L 408.35,78.65 L 203.09,78.65 L 203.09,192.6 z"
         id="path3578" />
    </clipPath>
    <clipPath
       id="clipPath3568">
      <path
         d="M 210.85,13.34 L 402.469,13.34 L 402.469,157.986 L 210.85,157.986 L 210.85,13.34 z"
         id="path3570" />
    </clipPath>
    <clipPath
       id="clipPath3560">
      <path
         d="M 210.85,157.986 L 402.25,157.986 L 402.25,13.336 L 210.85,13.336 L 210.85,157.986 z"
         id="path3562" />
    </clipPath>
  </defs>
  <g
     transform="translate(-566.60927,631.71324)"
     id="layer1">
    <g
       transform="translate(35.408203,35.467529)"
       id="g5564">
      <path
         d="M 529.6875,456.5 C 527.4907,456.5 524.19982,456.718 520.25,457.15625 C 517.44575,457.48909 515.1278,457.6996 513.5,457.78125 C 512.9574,457.80847 512.47928,457.8125 512.09375,457.8125 C 510.77895,457.8125 509.25536,457.84135 507.71875,457.625 C 506.1821,457.625 505.28124,457.37499 505.28125,457.375 C 504.62111,457.375 504.18749,457.83986 504.1875,458.5 C 504.1875,458.7219 504.4031,458.93434 504.625,459.15625 C 505.06324,459.37814 505.52737,459.37499 506.1875,459.375 C 507.06955,459.59135 507.71244,459.5906 508.15625,459.8125 C 508.81085,459.8125 509.2492,460.0305 509.6875,460.46875 C 510.5695,460.91254 510.99684,462.20708 511.21875,464.1875 C 511.65695,466.16239 511.87499,468.79858 511.875,472.09375 C 512.0914,475.38892 512.09377,480.47455 512.09375,487.28125 L 512.09375,508.5625 C 512.09375,513.17796 511.8757,516.48592 511.4375,518.25 C 511.38202,518.49686 511.32551,518.71717 511.25,518.9375 C 511.09898,519.37815 510.91358,519.78021 510.6875,520.125 C 510.57446,520.29739 510.44304,520.44276 510.3125,520.59375 C 509.79034,521.19773 509.14336,521.63869 508.375,521.96875 C 507.7149,522.19065 507.2852,522.40311 506.625,522.625 C 505.97041,522.625 505.5,522.84062 505.5,523.0625 C 505.28365,523.0625 505.06251,523.31177 505.0625,523.75 C 505.0625,524.07452 505.1902,524.2595 505.4375,524.34375 C 505.51993,524.37183 505.64044,524.40625 505.75,524.40625 C 505.75,524.40625 506.39916,524.38373 507.28125,524.15625 C 508.37955,523.9399 509.46096,523.75001 510.78125,523.75 C 511.10995,523.69453 511.44511,523.62495 511.78125,523.59375 C 512.78968,523.50014 513.86857,523.49998 515.1875,523.5 C 516.9405,523.5 518.46645,523.52812 519.78125,523.75 C 521.10155,523.75 522.43528,523.93993 523.75,524.15625 C 524.40735,524.26998 524.96662,524.38623 525.40625,524.46875 C 525.84588,524.55127 526.15589,524.62499 526.375,524.625 C 526.5914,524.625 526.81249,524.18271 526.8125,523.75 C 526.8125,523.53088 526.7714,523.35674 526.6875,523.21875 C 526.6036,523.08076 526.48319,522.95469 526.375,522.84375 C 526.1587,522.84375 525.7219,522.625 525.5,522.625 C 525.38905,522.625 525.25909,522.61793 525.125,522.59375 C 524.72272,522.5212 524.24506,522.34976 523.75,522.1875 C 522.8735,521.9656 521.99838,521.75072 521.34375,521.3125 C 520.68355,521.09615 520.22188,520.44141 520,519.78125 C 519.88905,519.34023 519.79708,518.85328 519.6875,518.25 C 519.57792,517.64672 519.4547,516.94177 519.34375,516.0625 C 519.12745,514.30397 519.12818,512.75539 518.90625,511.21875 C 518.90625,509.67657 518.90628,507.04591 518.90625,503.3125 L 518.90625,498.03125 C 518.90625,496.93286 518.90311,495.85079 519.125,494.96875 C 519.125,494.09226 519.12501,492.75539 519.125,491.21875 C 520.2234,491.4351 521.76647,491.65624 523.96875,491.65625 C 525.94365,491.8726 527.71407,492.09376 528.8125,492.09375 L 530.34375,492.09375 C 530.5629,492.42382 530.78369,492.80265 531.03125,493.1875 C 533.47183,497.26577 535.80307,500.94247 538.03125,504.15625 C 538.09755,504.25256 538.15263,504.37339 538.21875,504.46875 C 538.89218,505.43467 539.56483,506.36281 540.21875,507.25 C 543.29755,511.20531 546.36431,514.73366 549.4375,517.8125 C 552.7327,520.88577 555.83061,523.08596 558.6875,524.40625 C 561.7553,525.72099 564.61185,526.37503 567.46875,526.375 L 570.09375,526.375 C 570.4238,526.375 570.64464,526.32901 570.78125,526.21875 C 570.91786,526.10849 570.96875,525.93786 570.96875,525.71875 C 570.96875,525.2805 570.31539,524.84687 568.5625,524.625 C 567.0203,524.1812 565.25863,523.28589 563.5,522.1875 C 562.89535,521.80195 562.28458,521.37362 561.65625,520.90625 C 561.02792,520.43888 560.39524,519.95545 559.75,519.40625 C 558.45952,518.30786 557.12999,517.01943 555.8125,515.59375 C 553.3938,512.95318 550.5389,509.45531 547.6875,505.5 C 544.8251,501.32833 541.76395,496.48955 538.46875,490.78125 C 539.56715,490.45118 540.59794,490.0717 541.5625,489.65625 C 542.04478,489.44852 542.51863,489.2304 542.96875,489 C 545.21936,487.84799 547.05086,486.41057 548.5625,484.625 C 550.9812,481.76808 552.09373,478.48582 552.09375,474.96875 C 552.09375,471.23533 551.19611,468.16389 549.4375,465.3125 C 547.4626,462.45558 544.82095,460.2578 541.53125,458.9375 C 541.10377,458.74077 540.66513,458.55157 540.21875,458.375 C 540.15782,458.35173 540.09235,458.33537 540.03125,458.3125 C 537.5417,457.34911 534.79387,456.67955 531.875,456.5 C 531.2204,456.5 530.56951,456.5 529.6875,456.5 z M 110.3125,456.9375 C 103.28391,456.9375 97.120102,458.27361 91.40625,461.125 C 85.9143,464.20382 81.323279,468.16191 78.25,473.4375 C 74.95483,478.7131 73.187502,484.62841 73.1875,491.21875 C 73.1875,497.5872 74.736082,503.29003 78.03125,508.34375 C 81.11007,513.39745 85.476799,517.36179 90.96875,520.21875 C 96.67705,523.07567 103.06516,524.40625 110.09375,524.40625 C 112.72878,524.40625 115.14697,524.15384 117.34375,523.9375 C 119.54053,523.72115 122.38918,523.28515 125.90625,522.625 C 129.42332,521.96486 132.05397,521.53437 133.8125,521.3125 C 134.25075,521.09615 134.90865,521.09692 135.125,520.875 C 135.56879,520.875 135.7781,520.87813 136,520.65625 C 136,520.65625 136,520.43823 136,520 C 136,519.7781 135.78199,519.34137 135.34375,519.125 C 134.9055,518.90311 134.68749,518.68752 134.6875,518.6875 C 134.24926,518.24925 134.03125,517.13354 134.03125,515.375 C 133.8149,513.61646 133.8125,511.41942 133.8125,508.5625 L 133.8125,505.0625 C 133.8125,501.54543 133.8149,498.91163 134.03125,497.375 C 134.25315,495.61646 134.4704,494.53199 135.125,494.09375 C 135.3469,493.87185 136.02976,493.4094 136.90625,493.1875 C 137.78275,492.97115 138.21876,492.7539 138.21875,492.09375 C 138.21875,491.6555 138.00075,491.43752 137.5625,491.4375 C 136.90235,491.4375 136.44065,491.43752 136.21875,491.4375 C 135.7805,491.4375 135.3445,491.43434 134.90625,491.65625 C 134.24611,491.65625 133.37335,491.65624 132.71875,491.65625 C 131.83671,491.65625 130.97265,491.65865 130.3125,491.875 C 130.09061,491.875 129.87816,491.875 129.65625,491.875 C 129.4399,491.875 128.96635,491.875 128.75,491.875 C 125.89307,491.875 123.03888,491.87259 120.1875,491.65625 C 117.54693,491.43435 116.03125,491.43752 116.03125,491.4375 C 115.37111,491.4375 115.15625,491.65551 115.15625,492.09375 C 115.15625,492.53754 115.36871,492.96875 115.8125,492.96875 C 116.02885,492.96875 117.11961,493.18751 118.65625,493.1875 C 120.19843,493.1875 121.52346,493.43436 122.84375,493.65625 C 124.15849,493.8726 125.0305,494.30622 125.46875,494.75 C 126.12889,495.4046 126.3406,496.279 126.5625,497.59375 C 126.5625,498.69214 126.78125,500.89547 126.78125,503.96875 L 126.78125,506.59375 C 126.78125,510.11081 126.5625,512.52583 126.5625,514.0625 C 126.5625,515.60468 126.3445,516.72038 125.90625,517.375 C 125.46801,518.03514 124.60154,518.68916 123.28125,519.34375 C 121.74462,520.00945 119.97803,520.64995 117.78125,521.09375 C 115.58447,521.53199 112.95308,521.74998 110.3125,521.75 C 104.8261,521.75 99.768557,520.45069 95.375,517.59375 C 90.75954,514.73682 87.256881,510.99122 84.84375,505.9375 C 82.20872,501.10569 81.093753,495.61769 81.09375,489.6875 C 81.09375,483.75175 82.180622,478.48807 84.59375,473.65625 C 87.01243,469.04079 90.328339,465.51003 94.5,462.875 C 98.67721,460.23997 103.5088,459.15624 108.5625,459.15625 C 118.44802,459.15625 125.26028,462.44332 129.4375,469.25 C 129.87575,469.91014 130.31176,470.77974 130.75,471.65625 C 130.9719,472.75464 131.4031,473.21875 131.625,473.21875 C 132.06325,473.21875 132.50001,472.97503 132.5,472.53125 C 132.5,472.3149 132.28439,471.44048 132.0625,469.6875 C 131.62425,468.14532 131.40385,466.38353 131.1875,464.625 C 130.96561,462.65012 130.96875,460.69751 130.96875,458.0625 C 130.96875,457.40235 130.75388,457.15625 130.09375,457.15625 C 129.8774,457.15625 129.41014,457.62351 128.75,458.5 C 128.08985,459.16015 127.43825,459.59375 127,459.59375 C 126.56176,459.59375 125.90849,459.59448 124.59375,459.15625 C 123.05157,458.718 121.94214,458.28438 120.84375,458.0625 C 119.74536,457.8406 118.22728,457.60004 116.46875,457.15625 C 114.71021,456.9399 112.51483,456.93749 110.3125,456.9375 z M 527.9375,458.71875 C 531.09262,458.71875 533.88665,459.2995 536.25,460.5 C 536.61686,460.69893 536.99678,460.89823 537.34375,461.125 C 537.43754,461.18374 537.53289,461.25161 537.625,461.3125 C 538.16332,461.68107 538.6633,462.0978 539.15625,462.53125 C 539.44395,462.79019 539.73463,463.02704 540,463.3125 C 543.0788,466.60767 544.625,470.56814 544.625,475.84375 C 544.625,480.01541 543.07881,483.51882 540,485.9375 C 536.9267,488.35063 532.74189,489.6875 527.25,489.6875 C 524.8313,489.6875 521.97958,489.25391 518.90625,488.59375 C 519.12815,472.5506 519.34295,463.53979 519.78125,461.78125 C 519.94768,460.95746 520.42405,460.31961 521.21875,459.84375 C 521.48365,459.68513 521.78852,459.56093 522.125,459.4375 C 523.47094,458.94378 525.41065,458.71875 527.9375,458.71875 z M 760.65625,471.875 C 760.43435,471.875 760.44062,472.09061 760.21875,472.3125 C 760.21875,472.42068 760.21455,472.546 760.1875,472.65625 C 760.16045,472.7665 760.1082,472.88905 760,473 C 760,473.10818 759.99648,473.27598 759.96875,473.46875 C 759.94102,473.66152 759.89221,473.87463 759.78125,474.09375 C 759.34305,475.63039 758.91009,476.92657 758.25,478.46875 C 757.5898,480.22728 757.15623,480.90864 757.15625,481.125 C 757.15625,481.34135 757.59296,481.5625 758.03125,481.5625 C 758.1422,481.5625 758.19452,481.55968 758.25,481.53125 C 758.30548,481.50282 758.35781,481.45747 758.46875,481.34375 C 758.46875,481.1274 758.68752,480.6851 758.6875,480.46875 C 758.9094,480.02495 759.12502,479.78754 759.125,479.34375 C 759.29143,479.01506 759.46107,478.70382 759.71875,478.46875 C 759.80464,478.39039 759.89045,478.30409 760,478.25 C 760.2164,477.8062 761.09224,477.38129 761.96875,476.9375 C 763.06715,476.49925 764.18214,476.2844 765.71875,476.0625 C 767.26095,475.84615 769.01962,475.84374 771,475.84375 C 771.8765,475.84375 772.74918,475.84374 773.1875,475.84375 C 773.6257,475.84375 774.2774,475.84374 774.9375,475.84375 C 775.5921,475.84375 776.27427,475.84615 777.15625,476.0625 C 778.03275,476.0625 778.68353,476.0625 779.34375,476.0625 C 779.56005,477.60468 779.78126,479.58057 779.78125,482.4375 C 779.78125,485.29442 779.78126,489.2331 779.78125,494.28125 C 779.78125,496.26168 779.78126,497.80861 779.78125,498.46875 C 779.78125,499.34524 779.78126,500.21725 779.78125,501.09375 C 779.78125,506.69388 779.78111,510.96322 779.6875,513.9375 C 779.6563,514.92893 779.61797,515.75591 779.5625,516.46875 C 779.5625,519.32567 779.35008,520.87423 778.90625,521.3125 C 778.7967,521.42206 778.67553,521.50785 778.5625,521.59375 C 778.22342,521.85144 777.83882,522.02107 777.34375,522.1875 C 776.68355,522.1875 775.814,522.40311 774.9375,522.625 C 774.3883,522.625 773.95087,522.69591 773.59375,522.75 C 773.23663,522.80409 772.96914,522.84374 772.75,522.84375 C 772.3063,523.06565 772.09378,523.31177 772.09375,523.75 C 772.09375,523.85818 772.10147,523.95012 772.15625,524.03125 C 772.21103,524.11238 772.31209,524.15626 772.53125,524.15625 C 773.84875,523.9926 775.0547,523.86233 776.1875,523.75 C 777.3203,523.63767 778.38231,523.56796 779.34375,523.5 C 781.26662,523.36409 782.83875,523.3125 784.15625,523.3125 C 785.91475,523.3125 787.90008,523.28363 789.875,523.5 C 790.8652,523.61095 791.56809,523.69101 792.0625,523.71875 C 792.55691,523.74649 792.85779,523.75 792.96875,523.75 C 793.18515,523.75 793.18751,523.50389 793.1875,522.84375 C 793.1875,522.73419 793.1556,522.64441 793.125,522.5625 C 793.06379,522.39868 792.94498,522.30426 792.71875,522.25 C 792.60564,522.22287 792.47752,522.1875 792.3125,522.1875 C 791.4887,522.1875 790.72135,522.18377 790.0625,522.125 C 789.40365,522.06623 788.83782,521.96788 788.34375,521.84375 C 788.09672,521.78169 787.86212,521.70464 787.65625,521.625 C 787.03864,521.38609 786.62254,521.06814 786.375,520.65625 C 786.1531,520.00166 785.94062,518.69362 785.71875,516.71875 C 785.49685,514.73832 785.5,512.32642 785.5,509.03125 C 785.2837,505.95243 785.28125,501.11845 785.28125,494.75 C 785.28125,491.44928 785.5,487.92331 785.5,484.40625 C 785.5,480.67284 785.71872,477.81862 785.71875,475.84375 C 787.03905,475.84375 787.90161,475.84374 789,475.84375 C 789.8765,475.84375 790.99218,475.84374 792.3125,475.84375 C 796.706,475.84375 799.76957,476.05862 801.75,476.71875 C 803.5086,477.157 804.59373,478.27902 804.59375,479.59375 C 804.59375,479.81564 804.375,480.24926 804.375,480.6875 C 804.26405,480.90662 804.21523,481.11973 804.1875,481.3125 C 804.15977,481.50527 804.15626,481.67308 804.15625,481.78125 C 804.15625,481.78125 804.59306,482.00001 805.03125,482 C 805.24765,482 805.46876,481.78514 805.46875,481.125 C 805.69065,480.68676 805.90623,480.00389 805.90625,479.34375 C 806.12815,478.46726 806.36882,477.60394 806.8125,476.5 C 806.8666,476.2254 806.92502,475.95863 807,475.6875 C 807.22494,474.87411 807.52107,474.09487 807.6875,473.4375 L 807.25,472.78125 C 807.0281,473.21949 804.83103,473.43751 800.4375,473.4375 C 798.9008,473.4375 797.56716,473.43751 796.46875,473.4375 C 795.15405,473.4375 794.06787,473.43751 792.53125,473.4375 C 791.21095,473.4375 789.44612,473.43751 787.6875,473.4375 C 785.7126,473.4375 783.28889,473.43751 780.4375,473.4375 C 779.5554,473.4375 778.90695,473.43751 778.46875,473.4375 C 778.03045,473.4375 777.34453,473.43751 776.90625,473.4375 C 775.36965,473.4375 773.63422,473.43751 771.4375,473.4375 C 769.2407,473.6594 767.90462,473.65626 767.25,473.65625 C 764.6094,473.65625 762.85074,473.21948 761.96875,472.78125 C 761.75235,472.78125 761.53439,472.52886 761.3125,472.3125 C 761.0961,472.0906 760.87254,471.87499 760.65625,471.875 z M 1004.0625,471.875 C 1004.0084,471.875 1003.9714,471.91375 1003.9375,471.9375 C 1003.8358,472.00875 1003.7914,472.14608 1003.625,472.3125 C 1003.625,472.52885 1003.6226,472.7781 1003.4062,473 C 1003.4062,473.16226 1003.4061,473.43016 1003.3125,473.75 C 1003.2813,473.85661 1003.243,473.98419 1003.1875,474.09375 C 1002.7493,475.63039 1002.3164,476.92657 1001.6562,478.46875 C 1000.996,480.22728 1000.5625,480.90864 1000.5625,481.125 C 1000.5625,481.34135 1000.7773,481.5625 1001.4375,481.5625 C 1001.5485,481.5625 1001.6015,481.55968 1001.6562,481.53125 C 1001.711,481.50282 1001.7669,481.45747 1001.875,481.34375 C 1001.875,481.1274 1002.0937,480.6851 1002.0938,480.46875 C 1002.3157,480.02495 1002.5313,479.78754 1002.5312,479.34375 C 1002.6977,479.01506 1002.8665,478.70382 1003.125,478.46875 C 1003.2112,478.39039 1003.2953,478.30409 1003.4062,478.25 C 1003.6227,477.8062 1004.4985,477.38129 1005.375,476.9375 C 1006.2515,476.49925 1007.5884,476.2844 1009.125,476.0625 C 1010.6616,475.84615 1012.4258,475.84374 1014.4062,475.84375 C 1015.2828,475.84375 1016.15,475.84374 1016.5938,475.84375 C 1017.032,475.84375 1017.6891,475.84374 1018.3438,475.84375 C 1019.0039,475.84375 1019.6547,475.84615 1020.5312,476.0625 C 1021.4133,476.0625 1022.0954,476.0625 1022.75,476.0625 C 1022.9719,477.60468 1023.1875,479.58057 1023.1875,482.4375 C 1023.1875,485.29442 1023.1875,489.2331 1023.1875,494.28125 C 1023.1875,496.26168 1023.1875,497.80861 1023.1875,498.46875 C 1023.1875,499.34524 1023.1875,500.21725 1023.1875,501.09375 C 1023.1875,508.56059 1023.1907,513.61739 1022.9688,516.46875 C 1022.9688,519.32567 1022.7507,520.87423 1022.3125,521.3125 C 1021.8742,521.75074 1021.4102,521.9656 1020.75,522.1875 C 1020.0899,522.1875 1019.2257,522.40311 1018.3438,522.625 C 1017.2453,522.625 1016.6001,522.84374 1016.1562,522.84375 C 1015.7179,523.06565 1015.5,523.31177 1015.5,523.75 C 1015.5,523.91226 1015.5026,524.05401 1015.6875,524.125 C 1015.7491,524.14866 1015.8279,524.15626 1015.9375,524.15625 C 1017.255,523.9926 1018.4614,523.86233 1019.5938,523.75 C 1020.7261,523.63767 1021.7889,523.56796 1022.75,523.5 C 1024.6722,523.36409 1026.2422,523.3125 1027.5625,523.3125 C 1029.3155,523.3125 1031.304,523.28363 1033.0625,523.5 C 1034.1609,523.61095 1034.9473,523.69101 1035.4688,523.71875 C 1035.9902,523.74649 1036.2641,523.75 1036.375,523.75 C 1036.5914,523.75 1036.5937,523.50389 1036.5938,522.84375 C 1036.5938,522.73419 1036.5619,522.64441 1036.5312,522.5625 C 1036.47,522.39868 1036.3512,522.30426 1036.125,522.25 C 1036.0119,522.22287 1035.8525,522.1875 1035.6875,522.1875 C 1034.8637,522.1875 1034.128,522.18377 1033.4688,522.125 C 1032.8095,522.06623 1032.2444,521.96788 1031.75,521.84375 C 1031.5028,521.78169 1031.2684,521.70464 1031.0625,521.625 C 1030.4447,521.38609 1030.0267,521.06814 1029.7812,520.65625 C 1029.5593,520.00166 1029.3414,518.69362 1029.125,516.71875 C 1028.9031,514.73832 1028.875,512.32642 1028.875,509.03125 C 1028.6587,505.95243 1028.6875,501.11845 1028.6875,494.75 C 1028.6875,491.44928 1028.875,487.92331 1028.875,484.40625 C 1028.875,480.67284 1029.125,477.81862 1029.125,475.84375 C 1030.2234,475.84375 1031.3079,475.84374 1032.4062,475.84375 C 1033.2828,475.84375 1034.3672,475.84374 1035.6875,475.84375 C 1040.081,475.84375 1043.1759,476.05862 1045.1562,476.71875 C 1046.9092,477.157 1047.7812,478.27902 1047.7812,479.59375 C 1047.7812,479.81564 1047.7812,480.24926 1047.7812,480.6875 C 1047.6703,480.90662 1047.6215,481.11973 1047.5938,481.3125 C 1047.566,481.50527 1047.5625,481.67308 1047.5625,481.78125 C 1047.5625,481.78125 1047.7774,482.00001 1048.4375,482 C 1048.6539,482 1048.875,481.78514 1048.875,481.125 C 1049.0914,480.68676 1049.3125,480.00389 1049.3125,479.34375 C 1049.5344,478.46726 1049.7492,477.60394 1050.1875,476.5 C 1050.243,476.2254 1050.3305,475.95863 1050.4062,475.6875 C 1050.6335,474.87411 1050.9274,474.09487 1051.0938,473.4375 L 1050.6562,472.78125 C 1050.4343,473.21949 1048.0155,473.43751 1043.8438,473.4375 C 1042.3072,473.4375 1040.9735,473.43751 1039.875,473.4375 C 1038.5603,473.4375 1037.4484,473.43751 1035.9062,473.4375 C 1034.5915,473.4375 1032.8523,473.43751 1031.0938,473.4375 C 1029.1189,473.4375 1026.7006,473.43751 1023.8438,473.4375 C 1022.9672,473.4375 1022.3133,473.43751 1021.875,473.4375 C 1021.4368,473.4375 1020.7507,473.43751 1020.3125,473.4375 C 1018.7759,473.4375 1017.0405,473.43751 1014.8438,473.4375 C 1012.647,473.6594 1011.3165,473.65626 1010.6562,473.65625 C 1008.0213,473.65625 1006.2515,473.21948 1005.375,472.78125 C 1005.1531,472.78125 1004.9406,472.52886 1004.7188,472.3125 C 1004.5025,472.0906 1004.2844,471.87499 1004.0625,471.875 z M 363.59375,472.3125 C 363.44603,472.3216 363.30321,472.33306 363.15625,472.34375 C 361.65846,472.40467 360.16142,472.63617 358.6875,472.96875 C 358.62565,472.98174 358.5617,472.98663 358.5,473 C 358.33128,473.03657 358.16759,473.08551 358,473.125 C 357.79995,473.17533 357.60539,473.22677 357.40625,473.28125 C 357.36469,473.29201 357.32274,473.30155 357.28125,473.3125 C 356.92615,473.41124 356.57052,473.5139 356.21875,473.625 C 355.37022,473.88664 354.53673,474.18047 353.71875,474.53125 C 350.42358,475.85154 347.57494,477.61813 345.15625,480.03125 C 342.73758,482.22803 340.75778,485.07982 339.4375,488.375 C 337.90086,491.44827 337.25,494.73848 337.25,498.25 C 337.25,501.98342 337.89845,505.26492 339.21875,508.34375 C 340.36915,511.03286 341.86885,513.5834 343.84375,515.9375 C 344.12588,516.2738 344.41641,516.60813 344.71875,516.9375 C 347.13188,519.35063 349.98923,521.30472 353.0625,522.625 C 353.88768,522.95368 354.7033,523.25323 355.53125,523.5 C 355.94523,523.62339 356.36528,523.74087 356.78125,523.84375 C 358.8611,524.35813 360.96155,524.62499 363.15625,524.625 C 363.78796,524.625 364.41338,524.59725 365.03125,524.5625 C 369.34131,524.36434 373.43693,523.26757 377,521.09375 C 380.95532,518.67507 384.24072,515.61711 386.4375,511.65625 C 388.55385,508.00605 389.66295,504.16617 389.90625,500.03125 C 389.94101,499.44055 389.96875,498.85398 389.96875,498.25 C 389.96875,493.41819 388.85304,489.01227 386.65625,485.0625 C 384.23758,481.10718 381.17962,478.04052 377.21875,475.84375 C 374.25642,474.19616 371.053,473.03681 367.59375,472.5625 C 367.01721,472.48345 366.43402,472.41539 365.84375,472.375 C 365.25348,472.33461 364.63522,472.3125 364.03125,472.3125 C 363.80935,472.3125 363.81565,472.31251 363.59375,472.3125 z M 449.9375,472.53125 C 449.60881,472.53125 449.39389,472.65896 449.3125,472.90625 C 449.28537,472.98868 449.28125,473.10919 449.28125,473.21875 C 449.28125,473.44065 449.7141,473.65864 450.8125,473.875 C 451.90534,473.875 452.77495,474.30936 453.21875,474.53125 C 454.3116,475.19139 454.9937,476.48591 455.4375,478.25 C 455.65385,479.78663 456.09374,482.20317 456.09375,484.84375 C 456.31565,487.69512 456.3125,492.09867 456.3125,497.8125 L 456.3125,502.21875 C 456.3125,505.95217 456.09374,509.02439 456.09375,511.4375 L 455.4375,511.65625 C 449.28541,506.16985 444.45457,501.98266 440.9375,498.6875 C 439.17897,497.15086 437.4636,495.60334 435.84375,494.09375 C 435.03383,493.33895 434.2336,492.61289 433.46875,491.875 C 432.7039,491.13711 431.99409,490.40173 431.28125,489.6875 C 428.20243,486.83057 425.32251,483.98433 422.6875,481.34375 C 420.04692,478.49238 417.63113,475.85933 415.65625,473.21875 C 413.89771,473.44065 412.15849,473.43751 410.84375,473.4375 C 410.18361,473.4375 409.28591,473.43751 408.1875,473.4375 C 407.30546,473.4375 406.65699,473.43751 406.21875,473.4375 C 405.78051,473.4375 405.56251,473.65864 405.5625,473.875 C 405.5625,474.09689 406.21651,474.30621 407.53125,474.75 C 408.85154,474.96635 409.96171,475.62351 410.84375,476.5 C 411.50389,477.16015 411.93434,478.27828 412.15625,480.03125 C 412.60004,481.78979 412.8125,483.95872 412.8125,486.59375 C 412.8125,488.57418 412.93759,491.19665 413,494.59375 C 413.0208,495.72612 413.03125,496.93249 413.03125,498.25 L 413.03125,503.96875 C 413.03125,505.28904 412.8125,507.27437 412.8125,509.6875 C 412.8125,512.32807 412.8125,514.05784 412.8125,515.15625 L 412.8125,518.6875 C 412.8125,520.00779 412.60244,520.87423 412.375,521.3125 C 412.32091,521.42206 412.24145,521.54964 412.15625,521.65625 C 412.07105,521.76286 411.96683,521.84111 411.84375,521.9375 C 411.59758,522.13027 411.282,522.29806 410.84375,522.40625 C 410.18361,522.62814 409.28514,522.84062 408.625,523.0625 C 407.96347,523.22893 407.57085,523.39764 407.40625,523.5625 C 407.35138,523.61745 407.3125,523.69453 407.3125,523.75 C 407.3125,523.85817 407.34431,523.93915 407.375,524 C 407.40569,524.06085 407.43135,524.09795 407.5,524.125 C 407.6373,524.17909 407.85466,524.15626 408.1875,524.15625 C 410.16239,524.04808 411.88542,523.95613 413.3125,523.875 C 414.73958,523.79387 415.87351,523.75 416.75,523.75 C 417.85394,523.75 419.17656,523.72114 420.71875,523.9375 C 421.48707,523.9375 422.09231,524.00841 422.53125,524.0625 C 422.97019,524.11659 423.2328,524.15626 423.34375,524.15625 C 423.4547,524.15625 423.57794,524.11659 423.6875,524.0625 C 423.79706,524.00841 423.88905,523.93749 424,523.9375 L 424,523.75 C 424,523.64044 423.99987,523.5234 423.96875,523.4375 C 423.8754,523.1798 423.62011,523.01016 423.125,522.84375 C 422.68676,522.84375 421.81713,522.625 420.71875,522.625 C 419.61481,522.40311 418.53514,522.19067 417.875,521.96875 C 417.21485,521.74685 416.532,521.31327 416.09375,520.875 C 415.8774,520.43675 415.65939,519.56474 415.4375,518.25 C 415.2156,516.92971 415,514.94995 415,512.53125 C 414.77811,510.33447 414.78126,507.26946 414.78125,503.96875 C 414.78125,502.21299 414.74159,500.17293 414.6875,497.8125 C 414.63341,495.45207 414.5625,492.76354 414.5625,489.6875 L 414.5625,482.4375 L 415.4375,482.21875 C 416.53589,483.31714 418.52437,485.08446 420.9375,487.28125 C 423.57808,489.69993 425.98758,491.89142 428.40625,494.09375 C 430.81938,496.29053 433.89232,499.13992 437.1875,502.21875 C 440.69902,505.29203 444.01105,508.79304 447.75,512.09375 C 449.50299,513.85228 451.02901,515.61961 452.34375,517.15625 C 453.66404,518.69289 454.55859,519.77974 455.21875,520.65625 C 455.87889,521.53829 456.53051,522.40238 456.96875,523.0625 C 457.18788,523.39257 457.36339,523.6134 457.5,523.75 C 457.5683,523.8183 457.62917,523.87565 457.6875,523.90625 C 457.74583,523.93685 457.78828,523.9375 457.84375,523.9375 C 457.95331,523.9375 458.04257,523.93338 458.125,523.90625 C 458.20743,523.87912 458.28862,523.83568 458.34375,523.78125 C 458.45401,523.67238 458.5,523.53162 458.5,523.3125 C 458.5,523.0906 458.5,522.84135 458.5,522.625 C 458.5,522.40311 458.5,522.40385 458.5,522.1875 C 458.5,521.9656 458.28124,520.01391 458.28125,516.71875 C 458.28125,513.42358 458.28124,511.44139 458.28125,510.78125 C 458.0649,510.12665 458.06251,508.78739 458.0625,506.8125 L 458.0625,496.9375 C 458.0625,489.46512 458.2781,483.98268 458.5,480.6875 C 458.72189,477.61422 459.36797,475.62889 460.25,474.96875 C 460.46635,474.7524 460.68677,474.53126 461.125,474.53125 C 461.34413,474.4203 461.52246,474.37149 461.6875,474.34375 C 461.85254,474.31601 462.03088,474.3125 462.25,474.3125 C 462.35956,474.3125 462.44197,474.30153 462.53125,474.28125 C 462.70981,474.24068 462.85269,474.16556 463.03125,474.125 C 463.12053,474.10472 463.23419,474.09375 463.34375,474.09375 C 463.56564,473.87186 463.78125,473.87261 463.78125,473.65625 C 463.78125,473.21245 463.34765,472.99999 462.6875,473 C 462.24925,473 461.56713,472.99999 460.46875,473 C 459.37036,473.21635 458.5039,473.21875 457.84375,473.21875 C 457.51507,473.21875 457.16936,473.18 456.8125,473.15625 C 455.74193,473.085 454.53348,472.94766 453.21875,472.78125 C 451.23832,472.55935 450.15939,472.53124 449.9375,472.53125 z M 899.0625,472.53125 C 898.62288,472.53125 898.14368,472.5661 897.625,472.59375 C 897.10632,472.6214 896.55955,472.66362 895.96875,472.71875 C 894.78715,472.82901 893.45971,472.99963 892.03125,473.21875 C 890.4946,473.3297 889.23043,473.41679 888.1875,473.5 C 887.66604,473.54161 887.20008,473.60073 886.78125,473.625 C 886.36242,473.64927 885.98632,473.65625 885.65625,473.65625 C 884.55795,473.65625 883.47339,473.65941 882.375,473.4375 C 881.0547,473.4375 880.62255,473.43751 880.40625,473.4375 C 879.96245,473.4375 879.71875,473.6555 879.71875,474.09375 C 879.71875,474.20193 879.72647,474.29248 879.78125,474.375 C 879.80864,474.41626 879.84463,474.47582 879.90625,474.5 C 879.96787,474.52418 880.04671,474.53125 880.15625,474.53125 C 880.37815,474.75315 880.62102,474.7524 881.28125,474.96875 C 881.71945,474.96875 882.37431,474.9656 882.8125,475.1875 C 883.2508,475.1875 883.46808,475.40311 883.90625,475.625 C 884.23498,475.95369 884.57588,476.51983 884.8125,477.4375 C 884.89137,477.74339 884.94592,478.0832 885,478.46875 C 885.4383,480.00538 885.43443,481.99311 885.65625,484.40625 C 885.65625,486.82493 885.65623,490.79004 885.65625,495.84375 L 885.65625,512.09375 C 885.65625,515.82716 885.43516,518.24774 885.21875,519.5625 C 884.78055,521.10469 884.13281,521.96798 882.8125,522.40625 C 882.3743,522.62814 881.93821,522.84374 881.5,522.84375 C 881.2781,522.9547 881.10606,523.03476 880.96875,523.0625 C 880.83144,523.09024 880.7047,523.06251 880.59375,523.0625 C 880.4856,523.17345 880.43329,523.29669 880.40625,523.40625 C 880.37921,523.51581 880.40625,523.63906 880.40625,523.75 C 880.40625,523.91226 880.50181,524.05401 880.65625,524.125 C 880.70773,524.14866 880.78828,524.15626 880.84375,524.15625 C 880.84375,524.15625 880.93711,524.1833 881.15625,524.15625 C 881.37539,524.1292 881.718,524.04567 882.15625,523.9375 C 882.81635,523.9375 883.68601,523.75001 884.5625,523.75 C 884.83707,523.69453 885.09695,523.62495 885.375,523.59375 C 886.20915,523.50014 887.10351,523.49998 888.09375,523.5 C 889.40855,523.5 890.49545,523.52812 891.59375,523.75 C 891.81427,523.75 892.04053,523.75758 892.28125,523.78125 C 892.52197,523.80492 892.78404,523.83443 893.03125,523.875 C 893.52568,523.95613 893.99925,524.04809 894.4375,524.15625 C 895.5359,524.15625 896.2211,524.40625 896.4375,524.40625 C 896.54845,524.40625 896.63557,524.3297 896.71875,524.21875 C 896.76034,524.16328 896.81949,524.11342 896.84375,524.03125 C 896.86801,523.94908 896.87499,523.85818 896.875,523.75 C 896.875,523.69453 896.86455,523.61745 896.84375,523.5625 C 896.82295,523.50755 896.77773,523.46103 896.75,523.40625 C 896.69455,523.29669 896.65624,523.17346 896.65625,523.0625 C 896.5453,523.0625 896.41786,523.02423 896.28125,522.96875 C 896.14464,522.91327 896.00035,522.84374 895.78125,522.84375 C 895.6703,522.84375 895.50107,522.80409 895.28125,522.75 C 895.06143,522.69591 894.76755,522.625 894.4375,522.625 C 893.7773,522.40311 893.34772,522.19067 892.6875,521.96875 C 892.2493,521.74685 892.03205,521.31638 891.59375,520.65625 C 891.37745,520.00166 891.37813,519.12722 891.15625,517.8125 C 890.93435,516.48666 890.9375,515.38276 890.9375,514.0625 C 890.9375,512.96411 890.9375,510.97877 890.9375,508.34375 L 890.9375,504.1875 C 890.9375,503.311 890.9375,502.4414 890.9375,501.78125 C 890.9375,501.1211 890.9375,500.22893 890.9375,499.125 C 891.8195,499.125 893.11404,499.34375 894.65625,499.34375 C 896.19285,499.56565 897.52414,499.56251 898.40625,499.5625 L 899.5,499.5625 C 899.7191,499.89257 899.93291,500.22961 900.125,500.53125 C 900.25196,500.73639 900.34353,500.92267 900.46875,501.125 C 900.50583,501.19171 900.56395,501.28415 900.59375,501.34375 C 901.5831,502.94224 902.57631,504.55967 903.46875,505.96875 C 904.68112,507.90608 905.83979,509.70925 906.96875,511.21875 C 909.38745,514.29203 911.58376,516.93062 914.21875,519.34375 C 915.4281,520.44492 916.59683,521.4262 917.75,522.25 C 918.03829,522.45595 918.30469,522.65947 918.59375,522.84375 C 919.46094,523.39659 920.34508,523.82966 921.25,524.15625 C 923.4468,525.26019 925.64697,525.93751 927.84375,525.9375 L 929.8125,525.9375 C 930.0316,525.9375 930.20363,525.8915 930.3125,525.78125 C 930.42137,525.671 930.46874,525.50039 930.46875,525.28125 C 930.46875,524.843 929.81713,524.6226 928.71875,524.40625 C 927.39845,523.96245 926.0647,523.5015 924.75,522.625 C 922.9914,521.30472 921.04293,519.79055 919.0625,517.59375 C 917.0876,515.61886 914.88417,512.97953 912.6875,509.90625 C 910.707,506.61108 908.29125,503.08105 905.65625,498.6875 C 906.48002,498.4129 907.26211,498.11063 908,497.78125 C 908.36894,497.61656 908.7163,497.45963 909.0625,497.28125 C 909.4087,497.10287 909.73988,496.91083 910.0625,496.71875 C 910.38512,496.52667 910.70181,496.33077 911,496.125 C 911.89456,495.50768 912.6843,494.83433 913.34375,494.09375 C 915.31865,491.89142 916.1875,489.45067 916.1875,486.59375 C 916.1875,483.95873 915.32028,481.31863 914,479.34375 C 913.67133,478.79456 913.28672,478.28611 912.875,477.8125 C 912.66914,477.57569 912.47656,477.34551 912.25,477.125 C 911.11721,476.02245 909.70938,475.13768 908.0625,474.3125 C 905.64447,473.30455 903.03238,472.66087 899.90625,472.5625 C 899.65869,472.53476 899.3898,472.53124 899.0625,472.53125 z M 652.15625,472.78125 C 650.89282,472.78125 649.63509,472.83145 648.40625,472.96875 C 647.79183,473.0374 647.16571,473.11578 646.5625,473.21875 C 643.54647,473.73362 640.70108,474.68951 638.09375,476.0625 C 633.91655,478.26483 630.60063,481.3204 628.1875,485.28125 C 625.9907,489.00912 624.68752,493.41819 624.6875,498.25 C 624.6875,501.98342 625.33606,505.48923 626.65625,508.5625 C 628.19295,511.85767 629.95872,514.51885 632.59375,516.9375 C 635.00695,519.13428 637.8579,520.86721 641.375,522.1875 C 641.78689,522.35184 642.19984,522.51253 642.625,522.65625 C 643.90049,523.08742 645.24524,523.4415 646.625,523.6875 C 647.08492,523.7695 647.56144,523.84478 648.03125,523.90625 C 649.44068,524.09065 650.89177,524.15626 652.375,524.15625 C 652.75915,524.15625 653.15754,524.14866 653.5625,524.125 C 654.77737,524.05401 656.035,523.91227 657.1875,523.75 C 658.7241,523.52811 660.27273,523.06325 662.03125,522.625 C 663.56785,522.18676 665.33839,521.75072 666.875,521.3125 C 667.0969,520.2141 667.31495,519.17563 667.5625,518.1875 C 667.68628,517.69343 667.79664,517.21676 667.9375,516.75 C 668.07836,516.28324 668.2412,515.81464 668.40625,515.375 C 668.84445,513.40011 669.28124,512.31565 669.28125,512.09375 C 669.28125,511.87185 669.06331,511.875 668.625,511.875 C 668.4087,511.875 668.19066,511.87186 667.96875,512.09375 C 667.96875,512.09375 667.75315,512.53047 667.53125,512.96875 C 667.31495,513.41254 667.09457,514.05863 666.65625,514.71875 C 665.33605,517.35378 663.35306,519.33594 661.15625,520.65625 C 660.33245,521.06815 659.38051,521.41056 658.34375,521.6875 C 657.99816,521.77981 657.6453,521.86192 657.28125,521.9375 C 656.55315,522.08867 655.78635,522.2022 655,522.28125 C 654.60682,522.32078 654.21634,522.3548 653.8125,522.375 C 653.40866,522.3952 653.00565,522.40625 652.59375,522.40625 C 650.12519,522.40625 647.71579,521.98312 645.46875,521.125 C 645.01934,520.95338 644.59407,520.76845 644.15625,520.5625 C 643.28062,520.1506 642.41755,519.6742 641.59375,519.125 C 638.29855,517.15012 635.66477,514.07718 633.90625,510.34375 C 631.93135,506.61034 631.06249,502.43109 631.0625,497.59375 C 631.0625,495.39697 631.27981,493.32002 631.71875,491.34375 C 631.82848,490.84968 631.95653,490.35539 632.09375,489.875 C 632.50541,488.43382 633.02806,487.03765 633.6875,485.71875 C 634.78662,483.52058 636.0453,481.60533 637.59375,480.03125 C 637.90344,479.71643 638.2297,479.40965 638.5625,479.125 C 639.2281,478.5557 639.95043,478.032 640.71875,477.59375 C 643.79205,475.61332 647.0736,474.53126 650.8125,474.53125 C 652.7874,474.53125 654.99073,474.96487 657.1875,475.625 C 659.6062,476.28515 661.58518,476.9273 663.34375,478.03125 C 664.65845,478.69139 665.31178,479.37112 665.75,480.03125 C 665.9719,480.6914 666.21875,481.55786 666.21875,482.65625 L 666.21875,483.96875 C 666.21875,484.40699 666.43437,484.84375 666.65625,484.84375 C 667.09455,484.84375 667.09061,484.62814 667.3125,484.40625 C 667.5288,483.96801 667.53125,483.53274 667.53125,482.65625 C 667.6422,481.77698 667.73769,480.91403 667.875,480.0625 C 668.01231,479.21097 668.18436,478.36207 668.40625,477.59375 C 668.84445,475.83522 669.06252,475.18749 669.0625,475.1875 C 669.0625,474.96561 668.84447,474.75001 668.40625,474.75 C 668.40625,474.75 668.36027,474.75421 668.25,474.78125 C 668.13973,474.80829 667.96914,474.86057 667.75,474.96875 C 667.3118,474.96875 666.84454,474.96875 666.40625,474.96875 C 666.18995,474.96875 665.10472,474.75316 663.5625,474.53125 C 662.7942,474.31212 662.14293,474.1373 661.59375,474 C 661.04457,473.8627 660.61131,473.76443 660.28125,473.65625 C 659.40475,473.43435 658.51094,473.21875 656.96875,473.21875 C 655.65395,473.0024 654.13663,472.78124 652.15625,472.78125 z M 687.71875,473 C 687.49965,473 687.35887,473.04317 687.25,473.125 C 687.19556,473.16591 687.15213,473.19851 687.125,473.25 C 687.09787,473.30149 687.0625,473.38203 687.0625,473.4375 C 687.0625,473.6594 687.06483,473.87499 687.28125,473.875 C 687.33673,473.93047 687.42087,473.9688 687.5,474 C 687.7374,474.09361 688.04636,474.09374 688.375,474.09375 C 688.59415,474.20193 688.77246,474.25772 688.9375,474.3125 C 689.10254,474.36728 689.28091,474.4203 689.5,474.53125 C 689.9383,474.53125 690.37743,474.7524 690.59375,474.96875 C 691.47585,475.62889 691.90859,476.27976 692.125,477.15625 C 692.3469,478.26019 692.34372,479.80323 692.34375,482 L 692.34375,483.09375 C 692.34375,487.92556 692.34372,491.21335 692.34375,492.75 C 692.34375,494.50853 692.34372,496.0571 692.34375,497.59375 C 692.34375,512.75486 691.68968,520.87349 690.375,521.75 C 690.04215,522.08285 689.44945,522.29349 688.71875,522.46875 C 688.47518,522.52717 688.2121,522.56953 687.9375,522.625 C 686.8391,522.84135 686.40626,523.06173 686.40625,523.5 C 686.40625,523.72189 686.4087,523.93749 686.625,523.9375 L 687.0625,523.9375 C 687.2789,523.9375 687.49929,523.93749 687.9375,523.9375 C 688.1566,523.9375 688.49365,523.89784 688.90625,523.84375 C 689.31885,523.78966 689.82579,523.75 690.375,523.75 C 691.6897,523.75 692.99778,523.49998 694.3125,523.5 C 695.30273,523.5 696.29334,523.62509 697.28125,523.6875 C 697.61055,523.7083 697.95255,523.75 698.28125,523.75 C 699.81785,523.75 700.90239,523.93749 701.5625,523.9375 C 701.8926,524.04567 702.18292,524.1292 702.375,524.15625 C 702.56708,524.1833 702.65625,524.15626 702.65625,524.15625 C 702.71173,524.15625 702.79226,524.14866 702.84375,524.125 C 702.99823,524.05401 703.09376,523.91227 703.09375,523.75 C 703.09375,523.63905 703.1208,523.51932 703.09375,523.4375 C 703.0667,523.35568 702.98319,523.3125 702.875,523.3125 C 702.6531,523.0906 702.65692,523.06252 702.21875,523.0625 C 701.99685,523.0625 701.78439,523.06564 701.5625,522.84375 C 701.17835,522.73419 700.82591,522.60596 700.5,522.46875 C 700.17409,522.33154 699.88573,522.19594 699.625,522.03125 C 699.36427,521.86656 699.1261,521.69199 698.9375,521.5 C 698.8432,521.404 698.76247,521.29029 698.6875,521.1875 C 698.61253,521.08471 698.55477,520.98456 698.5,520.875 C 698.0617,519.77661 697.84374,518.47172 697.84375,516.71875 L 697.84375,500.65625 C 697.84375,499.9961 697.84062,499.56565 698.0625,499.34375 C 698.5008,499.12185 699.15476,499.12499 700.03125,499.125 L 729.25,499.125 C 730.3484,499.125 731.00232,499.12185 731.21875,499.34375 C 731.65695,499.56565 731.87498,499.77422 731.875,500.65625 L 731.875,501.09375 C 732.0969,504.82717 732.09376,507.24776 732.09375,508.5625 C 732.09375,514.80959 731.67516,518.88481 730.6875,520.78125 C 730.53555,521.07301 730.366,521.31121 730.1875,521.5 C 730.09825,521.59439 730.00229,521.68135 729.90625,521.75 C 729.68435,521.9719 729.25078,522.18988 728.8125,522.40625 C 728.5906,522.40625 728.15708,522.625 727.71875,522.625 C 727.4969,522.625 727.3248,522.69942 727.1875,522.78125 C 727.0502,522.86308 726.95469,522.95156 726.84375,523.0625 C 726.7356,523.0625 726.61376,523.13623 726.53125,523.21875 C 726.49,523.26001 726.46168,523.29252 726.4375,523.34375 C 726.41332,523.39498 726.40626,523.44591 726.40625,523.5 C 726.40625,523.61095 726.40976,523.73068 726.4375,523.8125 C 726.45137,523.85341 726.4688,523.8825 726.5,523.90625 C 726.5312,523.93 726.56952,523.9375 726.625,523.9375 C 726.73315,523.9375 726.79318,524.00841 726.875,524.0625 C 726.95682,524.11659 727.0621,524.15626 727.28125,524.15625 C 727.28125,524.15625 727.43996,524.11659 727.6875,524.0625 C 727.93504,524.00841 728.2637,523.93749 728.59375,523.9375 C 728.81288,523.88341 729.03785,523.84292 729.28125,523.8125 C 730.01144,523.72123 730.83245,523.75 731.65625,523.75 C 731.98633,523.69453 732.32266,523.62495 732.625,523.59375 C 733.53201,523.50014 734.31136,523.49998 734.96875,523.5 C 735.85075,523.5 736.93283,523.52812 738.03125,523.75 C 738.58045,523.75 739.09231,523.72296 739.53125,523.75 C 739.97019,523.77704 740.35746,523.82932 740.6875,523.9375 C 741.3477,523.9375 741.78123,524.15628 741.78125,524.15625 C 742.0004,524.15625 742.17098,524.10887 742.28125,524 C 742.39152,523.89113 742.43751,523.71911 742.4375,523.5 C 742.4375,523.44591 742.39515,523.38453 742.34375,523.3125 C 742.18954,523.09641 741.83883,522.84374 741.34375,522.84375 C 740.46165,522.6274 739.78509,522.40702 739.125,521.96875 C 738.6868,521.5305 738.24763,520.87966 738.03125,519.78125 C 737.59305,518.89921 737.59687,517.79461 737.375,516.46875 C 737.375,514.93766 737.37497,512.97638 737.375,510.125 L 737.375,501.34375 C 737.375,496.5064 737.37497,492.97803 737.375,490.78125 C 737.375,488.58446 737.37186,486.16869 737.59375,483.75 C 737.59375,481.11497 737.80933,479.34284 738.03125,478.25 C 738.24765,477.14606 738.46806,476.28199 738.90625,475.84375 C 738.96173,475.7328 739.04586,475.64866 739.125,475.5625 C 739.20414,475.47634 739.27896,475.38115 739.375,475.3125 C 739.56708,475.1752 739.78086,475.07969 740,474.96875 C 740.2219,474.7524 740.68356,474.5344 741.34375,474.3125 C 741.78195,474.3125 742.00234,474.09374 742.21875,474.09375 C 742.21875,474.03828 742.2292,473.9612 742.25,473.90625 C 742.31241,473.74139 742.43752,473.60393 742.4375,473.4375 C 742.4375,473.2156 742.21953,472.99999 741.78125,473 C 741.55935,473 740.66476,473.21875 738.90625,473.21875 C 738.13795,473.3297 737.39333,473.37851 736.625,473.40625 C 735.85667,473.43399 735.08079,473.4375 734.3125,473.4375 C 733.4887,473.4375 732.41228,473.43736 731.1875,473.34375 C 730.77924,473.31255 730.3445,473.27423 729.90625,473.21875 C 728.36405,473.0024 727.27893,472.99999 727.0625,473 C 727.00702,473 726.95773,473.00403 726.90625,473.03125 C 726.85477,473.05847 726.79091,473.10147 726.75,473.15625 C 726.66819,473.26581 726.625,473.43436 726.625,473.65625 C 726.625,473.71034 726.62219,473.74736 726.65625,473.78125 C 726.69031,473.81514 726.76159,473.84761 726.84375,473.875 C 727.00808,473.92978 727.27777,473.9828 727.71875,474.09375 C 728.37335,474.3101 728.81413,474.52811 729.46875,474.75 C 729.68927,474.85956 729.90097,474.98779 730.09375,475.125 C 730.67209,475.53664 731.10878,476.06139 731.4375,476.71875 C 731.6538,477.3789 731.87498,478.92897 731.875,480.6875 L 731.875,494.75 C 731.875,495.24095 731.74727,495.72129 731.5,496.03125 C 731.41758,496.13457 731.32829,496.22578 731.21875,496.28125 C 730.78045,496.4976 730.12649,496.50001 729.25,496.5 L 700.46875,496.5 C 699.37045,496.5 698.50314,496.4976 698.28125,496.28125 C 698.06485,496.05935 697.84374,495.62889 697.84375,494.96875 L 697.84375,494.28125 C 697.62185,492.52826 697.62501,490.78903 697.625,489.46875 C 697.625,486.17358 697.84062,482.64206 698.0625,479.125 C 698.2789,477.36647 698.71481,476.28516 699.375,475.625 C 699.8132,475.18675 700.25243,474.96875 700.46875,474.96875 C 700.57832,474.91466 700.70992,474.87764 700.84375,474.84375 C 701.11142,474.77597 701.42685,474.72542 701.75,474.65625 C 701.91157,474.62166 702.05369,474.58673 702.21875,474.53125 C 702.43785,474.53125 702.72118,474.46172 702.96875,474.40625 C 703.21632,474.35078 703.45156,474.3125 703.5625,474.3125 C 703.7788,474.09615 703.99999,473.87499 704,473.875 C 704,473.43675 703.78193,473.21875 703.34375,473.21875 C 703.12185,473.21875 702.44532,473.21561 701.125,473.4375 C 699.8047,473.4375 698.71712,473.43751 698.0625,473.4375 C 697.18325,473.4375 696.19635,473.43399 695.125,473.40625 C 694.05365,473.37851 692.89684,473.3297 691.6875,473.21875 C 689.2744,473.21875 687.94066,472.99999 687.71875,473 z M 228.71875,473.21875 C 227.39846,473.44065 225.85228,473.65626 224.09375,473.65625 C 223.32543,473.76443 222.62751,473.85919 221.96875,473.96875 C 221.30999,474.07831 220.70821,474.20433 220.15625,474.3125 C 219.0634,474.3125 218.15774,474.3125 217.28125,474.3125 C 216.62111,474.3125 215.74909,474.3125 214.65625,474.3125 C 213.55786,474.09615 212.69139,474.09374 212.03125,474.09375 C 210.71651,474.09375 210.28125,474.30621 210.28125,474.75 C 210.28125,474.96635 210.2524,474.9656 210.46875,475.1875 C 210.69065,475.1875 211.15864,475.40625 211.375,475.40625 C 211.8188,475.40625 212.24925,475.62501 212.6875,475.625 C 213.12575,475.8469 213.56174,476.05935 214,476.28125 C 214.43825,476.71949 214.87185,477.59152 215.09375,478.90625 C 215.532,480.44844 215.53364,482.20632 215.75,484.625 C 215.75,487.03813 215.74999,490.57445 215.75,495.40625 L 215.75,513.84375 C 215.75,516.91702 215.53441,519.12032 215.3125,520.21875 C 215.09615,521.31714 214.22339,521.96798 213.125,522.40625 C 212.90865,522.62814 212.47024,522.62739 211.59375,522.84375 C 210.93361,522.84375 210.46875,523.28363 210.46875,523.5 C 210.46875,523.82868 210.59893,524.04361 210.9375,524.125 C 211.05036,524.15213 211.21135,524.15626 211.375,524.15625 C 211.48595,524.15625 211.62745,524.1833 211.875,524.15625 C 212.12255,524.1292 212.46523,524.04567 212.90625,523.9375 C 214.00464,523.9375 215.0915,523.75001 216.40625,523.75 C 217.72654,523.75 219.0634,523.49998 220.15625,523.5 C 221.47653,523.5 222.34465,523.52812 223.4375,523.75 C 224.09903,523.75 225.00403,523.72123 226.15625,523.8125 C 226.54032,523.84292 226.968,523.88341 227.40625,523.9375 C 228.89157,523.9375 230.10797,524.06416 231.28125,524.125 C 231.67234,524.14528 232.05334,524.15626 232.4375,524.15625 C 232.9349,524.15625 233.4463,524.14179 233.9375,524.125 C 234.432,524.10134 234.91218,524.07182 235.40625,524.03125 C 238.7038,523.80058 241.82042,523.20245 244.53125,522.1875 C 245.41052,521.85743 246.28378,521.51324 247.125,521.125 C 247.54561,520.93088 247.96777,520.74118 248.375,520.53125 C 250.41113,519.48162 252.2418,518.22694 253.75,516.71875 C 256.39057,514.30008 258.36961,511.63577 259.90625,508.5625 C 261.22654,505.26733 261.90623,501.98342 261.90625,498.25 C 261.90625,494.29469 261.00613,490.54833 259.03125,487.03125 C 257.05082,483.29783 254.20457,480.23119 250.6875,477.8125 C 248.8735,476.4936 246.93474,475.54238 244.875,474.78125 C 244.18842,474.52754 243.49548,474.31287 242.78125,474.09375 C 241.22779,473.7348 239.5965,473.50959 237.84375,473.375 C 237.76097,473.36654 237.67655,473.38259 237.59375,473.375 C 236.09995,473.23805 234.62222,473.21875 233.125,473.21875 C 231.58836,473.21875 230.25539,473.21875 228.71875,473.21875 z M 605.28125,473.21875 C 604.91061,473.23262 604.49454,473.2813 604.03125,473.3125 C 603.56796,473.3437 603.04918,473.38203 602.5,473.4375 C 600.0813,473.6594 598.10225,473.87499 596.34375,473.875 C 595.68355,473.875 594.81633,473.65626 594.15625,473.65625 C 593.27415,473.65625 592.59762,473.65626 591.9375,473.65625 C 591.4993,473.65625 590.84443,473.65626 590.40625,473.65625 C 589.96245,473.43435 589.53273,473.43751 588.65625,473.4375 L 588.21875,473.4375 C 588.1078,473.4375 588.00975,473.4411 587.90625,473.46875 C 587.80275,473.4964 587.70753,473.53862 587.625,473.59375 C 587.45995,473.704 587.34375,473.87463 587.34375,474.09375 C 587.34375,474.42244 587.69482,474.60702 588.4375,474.78125 C 588.68506,474.83933 588.98243,474.91466 589.3125,474.96875 C 590.8491,474.96875 591.96724,475.18676 592.84375,475.625 C 593.94215,476.28515 594.59058,478.05413 594.8125,481.34375 C 595.2508,484.64447 595.24999,490.34178 595.25,498.46875 C 595.25,505.49734 595.24999,510.54931 595.25,513.40625 C 595.0281,516.47398 594.81883,518.46726 594.375,519.34375 C 594.0477,520.44492 593.32064,521.26261 592.25,521.8125 C 591.98234,521.94997 591.68695,522.08443 591.375,522.1875 C 590.43914,522.49672 589.3189,522.625 588,522.625 C 587.3398,522.625 586.90628,522.8687 586.90625,523.3125 C 586.90625,523.75074 587.34295,523.75001 587.78125,523.75 C 588.00315,523.75 588.43751,523.93749 588.4375,523.9375 C 588.6594,523.9375 588.87184,523.93749 589.09375,523.9375 C 589.2047,523.9375 589.53333,523.96454 590,523.9375 C 590.23334,523.92398 590.48993,523.90542 590.78125,523.875 C 591.07257,523.84458 591.39007,523.80409 591.71875,523.75 C 593.25535,523.75 594.58594,523.49998 595.90625,523.5 C 596.56365,523.5 597.33246,523.56953 598.15625,523.625 C 598.98004,523.68047 599.87075,523.75 600.75,523.75 C 601.73745,523.75 602.48205,523.78966 603.03125,523.84375 C 603.58045,523.89784 603.92029,523.93749 604.03125,523.9375 C 604.46945,523.9375 605.12115,523.93749 605.78125,523.9375 L 606.4375,523.9375 C 606.65802,523.9375 606.86612,523.93338 607.03125,523.90625 C 607.19638,523.87912 607.32759,523.83568 607.4375,523.78125 C 607.54741,523.72682 607.63264,523.67566 607.6875,523.59375 C 607.74236,523.51184 607.78125,523.42206 607.78125,523.3125 C 607.78125,523.25702 607.74293,523.17701 607.71875,523.125 C 607.69457,523.07299 607.66626,523.04161 607.625,523 C 607.58374,522.95839 607.55122,522.93052 607.5,522.90625 C 607.44878,522.88198 607.39783,522.84375 607.34375,522.84375 C 607.12185,522.84375 606.65775,522.625 605.78125,522.625 C 605.4512,522.625 605.14257,522.65274 604.8125,522.625 C 604.64746,522.61113 604.47753,522.56245 604.3125,522.53125 C 604.14747,522.50005 603.97753,522.46172 603.8125,522.40625 C 602.4978,522.1899 601.62571,521.31473 601.1875,520 C 600.7492,518.67971 600.75001,516.26469 600.75,512.53125 L 600.75,504.84375 C 600.75,497.37692 600.75001,491.88651 600.75,488.375 C 600.9664,484.86348 600.96244,482.00928 601.40625,479.8125 C 601.56848,478.16492 601.83561,477.00294 602.15625,476.34375 C 602.26313,476.12402 602.38905,475.95331 602.5,475.84375 C 603.1546,475.1836 604.23905,474.75316 605.78125,474.53125 C 607.09605,474.30935 608.00002,473.87261 608,473.65625 C 608,473.21245 607.56086,473.21875 606.90625,473.21875 C 606.5762,473.21875 606.02252,473.19101 605.28125,473.21875 z M 974.84375,473.21875 C 974.62185,473.21875 974.19003,473.26054 973.53125,473.34375 C 972.87247,473.42696 972.00464,473.54531 970.90625,473.65625 C 968.70955,473.65625 966.94287,473.87499 965.40625,473.875 C 963.86965,473.875 962.31795,473.87261 960.78125,473.65625 C 959.63089,473.65625 958.81946,473.47998 958.78125,473.4375 C 958.47249,473.45406 958.26752,473.67149 958.1875,473.96875 C 958.15985,474.07146 958.15625,474.20294 958.15625,474.3125 C 958.15625,474.5344 958.58674,474.52811 959.46875,474.75 C 960.34525,474.75 960.99918,474.9656 961.4375,475.1875 C 961.8757,475.1875 962.34059,475.62425 962.5625,476.0625 C 962.72753,476.44804 962.86608,477.30662 963,478.625 C 963.06696,479.28419 963.12959,480.04504 963.1875,480.9375 C 963.47707,485.39982 963.65625,492.79633 963.65625,503.09375 C 963.65625,505.29053 963.65625,507.25017 963.65625,508.78125 C 963.65625,510.54533 963.87498,512.5251 963.875,514.5 C 963.875,516.91867 963.65943,518.89605 963.4375,520 C 962.9992,521.09839 962.31398,521.74687 961.4375,521.96875 C 961.2156,522.19065 960.78277,522.40623 959.90625,522.40625 C 959.24615,522.62814 958.81556,522.84374 958.59375,522.84375 C 958.59375,522.84375 958.5541,522.921 958.5,523.03125 C 958.47295,523.08638 958.42654,523.13632 958.40625,523.21875 C 958.38596,523.30118 958.375,523.39043 958.375,523.5 C 958.375,523.55547 958.37565,523.63601 958.40625,523.6875 C 958.49806,523.84196 958.75494,523.93749 959.25,523.9375 C 959.4719,523.9375 960.58838,523.96636 962.125,523.75 C 963.6617,523.75 966.51272,523.75001 970.90625,523.75 C 971.94917,523.69453 973.03081,523.62495 974.15625,523.59375 C 977.53257,523.50014 981.28724,523.49998 985.40625,523.5 C 989.79975,523.5 993.08212,523.72358 995.0625,524.15625 C 995.5008,522.84151 995.9367,521.31791 996.375,519.78125 C 996.54003,519.39709 996.66424,519.0516 996.78125,518.71875 C 997.13229,517.72021 997.30646,516.91151 997.46875,516.25 C 997.69065,515.5954 997.90628,514.72261 997.90625,514.0625 C 997.90625,513.62425 997.68829,513.40623 997.25,513.40625 C 996.8118,513.40625 996.37262,513.83911 996.15625,514.9375 C 995.93435,516.03589 995.50394,517.15234 994.84375,517.8125 C 994.18365,518.68899 991.98269,519.55546 988.6875,520.4375 C 987.9192,520.60254 987.08288,520.77233 986.1875,520.90625 C 985.29212,521.04017 984.34576,521.15396 983.34375,521.25 C 981.33974,521.44208 979.12025,521.53125 976.8125,521.53125 C 973.9556,521.53125 972.22023,521.3101 971.34375,521.09375 C 970.24535,520.87185 969.78443,520.2258 969.5625,519.34375 C 969.1242,517.81267 968.90623,509.47048 968.90625,494.53125 L 968.90625,487.5 C 968.90625,484.42118 969.12502,482.22414 969.125,480.6875 C 969.125,479.36721 969.34613,478.03829 969.5625,477.15625 C 969.7844,476.05786 970.2493,475.62815 970.6875,475.40625 C 971.01623,475.07757 971.32602,474.86264 971.65625,474.78125 C 971.76633,474.75412 971.89045,474.75 972,474.75 C 972.21915,474.75 972.47892,474.68047 972.78125,474.625 C 973.08358,474.56953 973.41989,474.53125 973.75,474.53125 C 973.91365,474.53125 974.03993,474.5208 974.15625,474.5 C 974.50522,474.43759 974.67732,474.3125 974.84375,474.3125 C 975.06285,474.20432 975.19522,474.14853 975.25,474.09375 C 975.30478,474.03897 975.28126,473.98594 975.28125,473.875 C 975.28125,473.65865 975.28127,473.43751 975.28125,473.4375 C 975.05935,473.4375 975.06004,473.21875 974.84375,473.21875 z M 1085.125,473.21875 C 1083.8047,473.44065 1082.2585,473.65626 1080.5,473.65625 C 1079.7317,473.76443 1078.9677,473.85919 1078.2812,473.96875 C 1077.5948,474.07831 1077.0035,474.20433 1076.5625,474.3125 C 1075.4641,474.3125 1074.5952,474.3125 1073.7188,474.3125 C 1073.0585,474.3125 1072.1609,474.3125 1071.0625,474.3125 C 1069.9641,474.09615 1069.0976,474.09374 1068.4375,474.09375 C 1067.1227,474.09375 1066.4687,474.30621 1066.4688,474.75 C 1066.4688,474.80409 1066.4763,474.84111 1066.5,474.875 C 1066.5712,474.97667 1066.7398,475.02108 1066.9062,475.1875 C 1067.1282,475.1875 1067.343,475.40625 1067.7812,475.40625 C 1068.2251,475.40625 1068.6555,475.62501 1069.0938,475.625 C 1069.5321,475.8469 1069.9624,476.05935 1070.4062,476.28125 C 1070.6254,476.50037 1070.8392,476.84162 1071.0312,477.28125 C 1071.1273,477.50107 1071.2334,477.72558 1071.3125,478 C 1071.3916,478.27442 1071.4445,478.57757 1071.5,478.90625 C 1071.7163,480.44844 1071.9376,482.20632 1071.9375,484.625 C 1072.1539,487.03813 1072.1563,490.57445 1072.1562,495.40625 L 1072.1562,513.84375 C 1072.1562,515.38038 1072.1131,516.7106 1072.0312,517.78125 C 1071.9903,518.31658 1071.9265,518.77907 1071.875,519.1875 C 1071.8235,519.59593 1071.7742,519.94414 1071.7188,520.21875 C 1071.5025,521.31714 1070.6297,521.96798 1069.5312,522.40625 C 1069.4771,522.46172 1069.3982,522.52792 1069.3125,522.5625 C 1069.2268,522.59708 1069.1238,522.59761 1069,522.625 C 1068.7524,522.67978 1068.4382,522.73557 1068,522.84375 C 1067.1235,522.84375 1066.9062,523.28363 1066.9062,523.5 C 1066.9062,523.82868 1067.0052,524.04361 1067.3438,524.125 C 1067.4566,524.15213 1067.6176,524.15626 1067.7812,524.15625 C 1067.7812,524.15625 1067.9435,524.1833 1068.2188,524.15625 C 1068.494,524.1292 1068.8715,524.04567 1069.3125,523.9375 C 1070.189,523.9375 1071.4978,523.75001 1072.8125,523.75 C 1074.1328,523.75 1075.464,523.49998 1076.5625,523.5 C 1077.6608,523.5 1078.7429,523.52812 1079.625,523.75 C 1080.2824,523.75 1081.3161,523.72123 1082.5312,523.8125 C 1082.9363,523.84292 1083.3729,523.88341 1083.8125,523.9375 C 1085.2979,523.9375 1086.5455,524.06416 1087.7188,524.125 C 1088.1098,524.14528 1088.4908,524.15626 1088.875,524.15625 C 1089.3714,524.15625 1089.8582,524.14172 1090.3438,524.125 C 1090.838,524.10134 1091.3493,524.07182 1091.8438,524.03125 C 1092.8911,523.95599 1093.9038,523.87554 1094.9062,523.71875 C 1094.9166,523.71668 1094.9272,523.72082 1094.9375,523.71875 C 1096.497,523.47345 1097.9971,523.09959 1099.4688,522.65625 C 1099.9665,522.51574 1100.4438,522.35115 1100.9375,522.1875 C 1101.8168,521.85743 1102.6761,521.51324 1103.5,521.125 C 1103.9119,520.93088 1104.3206,520.74118 1104.7188,520.53125 C 1106.7094,519.48162 1108.5094,518.22694 1110.1562,516.71875 C 1112.7968,514.30008 1114.776,511.63577 1116.3125,508.5625 C 1117.6328,505.26733 1118.3125,501.98342 1118.3125,498.25 C 1118.3125,494.29469 1117.4156,490.54833 1115.2188,487.03125 C 1113.2438,483.29783 1110.6053,480.23119 1107.0938,477.8125 C 1105.1175,476.4936 1103.259,475.54238 1101.25,474.78125 C 1100.5803,474.52754 1099.9017,474.31287 1099.1875,474.09375 C 1097.8158,473.77679 1096.3305,473.57635 1094.7812,473.4375 C 1094.718,473.42952 1094.657,473.41367 1094.5938,473.40625 C 1094.4604,473.39489 1094.322,473.38526 1094.1875,473.375 C 1092.629,473.22025 1091.0907,473.21875 1089.5312,473.21875 C 1087.9947,473.21875 1086.4398,473.21875 1085.125,473.21875 z M 153.96875,473.4375 C 153.72068,473.45804 153.59375,473.54631 153.59375,473.875 C 153.59375,474.09689 154.02735,474.53126 154.6875,474.53125 C 155.56399,474.75315 156.218,474.9656 156.65625,475.1875 C 157.75464,475.62575 158.43434,476.49222 158.65625,477.8125 C 158.8726,479.13279 159.09374,481.32742 159.09375,484.40625 L 159.09375,492.3125 C 159.09375,510.32499 158.63519,520.21097 157.53125,521.53125 C 157.3149,521.7476 157.0945,521.9656 156.65625,522.1875 C 156.218,522.40385 155.78515,522.625 155.125,522.625 C 154.68676,522.84135 154.0344,522.84062 153.8125,523.0625 C 153.37426,523.2844 153.15626,523.31177 153.15625,523.75 C 153.15625,523.96635 153.37111,524.15628 154.03125,524.15625 C 153.80935,524.15625 154.46261,524.15384 156.4375,523.9375 C 158.19604,523.9375 160.61422,523.75001 163.6875,523.75 C 166.76632,523.52811 169.83296,523.49998 172.90625,523.5 C 177.7436,523.5 183.46901,523.52812 190.28125,523.75 C 191.60154,521.11498 192.46799,518.91241 192.90625,516.9375 C 193.34449,514.96262 193.78125,513.41013 193.78125,512.75 C 193.78125,512.31175 193.56326,512.09376 193.125,512.09375 C 192.90311,512.09375 192.68511,512.52419 192.46875,513.40625 C 192.0305,514.06085 191.81326,514.71486 191.375,515.375 C 189.83836,517.79368 187.85063,519.55546 185.4375,520.4375 C 182.80248,521.314 179.30295,521.74998 174.6875,521.75 C 171.61423,521.75 168.29831,521.53516 164.78125,520.875 C 164.5649,519.11646 164.56564,516.91939 164.34375,514.0625 C 164.34375,511.42747 164.34374,508.78889 164.34375,505.9375 L 164.34375,500.875 C 164.34375,500.2204 164.3406,499.77886 164.5625,499.5625 C 164.77885,499.3406 165.21245,499.12261 165.65625,498.90625 C 166.31639,498.90625 167.6477,498.90626 169.40625,498.90625 L 173.8125,498.90625 C 176.66942,498.90625 178.83837,498.90864 180.375,499.125 C 181.69528,499.125 182.81416,499.56177 183.46875,500 C 184.35079,500.43825 184.78364,501.3391 185,502.4375 C 185.2219,503.0921 185.43991,503.74296 185.65625,504.625 C 185.65625,505.5015 185.87186,505.93751 186.09375,505.9375 C 186.53199,505.9375 186.74999,505.50391 186.75,504.84375 C 186.75,504.84375 186.7476,503.97173 186.53125,502.21875 C 186.30936,500.68212 186.3125,499.34525 186.3125,498.46875 C 186.3125,497.37036 186.30936,496.06475 186.53125,494.75 C 186.7476,493.42971 186.74999,492.53755 186.75,492.09375 C 186.75,491.6555 186.75074,491.43752 186.3125,491.4375 C 186.09615,491.4375 185.65385,492.08671 185.4375,492.96875 C 185.21561,494.06714 184.78514,494.96487 184.125,495.625 C 183.46485,496.06325 182.34989,496.50239 180.375,496.71875 C 178.61646,496.94619 175.76226,496.93749 171.8125,496.9375 L 168.09375,496.9375 C 166.99536,496.9375 166.09449,496.93749 165.65625,496.9375 C 164.9961,496.9375 164.77885,496.71636 164.5625,496.5 C 164.3406,496.28365 164.34374,495.84764 164.34375,495.1875 L 164.34375,493.84375 C 164.34375,487.69165 164.56175,481.77394 165,475.84375 C 168.51152,475.39995 171.82983,475.18749 175.125,475.1875 C 178.19828,475.1875 180.8352,475.1899 182.59375,475.40625 C 184.56863,475.62815 185.87111,476.06176 186.53125,476.5 C 187.40775,477.16015 187.84374,477.80546 187.84375,478.6875 C 187.84375,479.3421 187.84374,480.02495 187.84375,480.46875 C 187.6274,481.12334 187.625,481.33505 187.625,481.5625 C 187.40311,481.77885 187.40625,482.00239 187.40625,482.21875 C 187.40625,482.44065 187.843,482.65625 188.28125,482.65625 C 188.72504,482.65625 188.7524,482.43826 188.96875,482 C 188.96875,481.77811 189.18675,480.44919 189.625,478.46875 C 189.84689,476.48831 190.2781,474.7578 190.5,473.4375 C 186.32279,473.4375 182.57568,473.43751 179.71875,473.4375 C 176.86183,473.4375 173.1467,473.43436 168.53125,473.65625 C 164.14324,473.65625 161.93991,473.65626 162.15625,473.65625 C 160.18137,473.65625 158.19603,473.65941 156.4375,473.4375 C 154.90086,473.4375 154.0281,473.43751 154.25,473.4375 C 154.13905,473.4375 154.05144,473.43065 153.96875,473.4375 z M 280.46875,473.4375 C 280.1606,473.45804 279.90624,473.54631 279.90625,473.875 C 279.90625,474.09689 280.34227,474.53126 281.21875,474.53125 C 281.8789,474.75315 282.52736,474.9656 283.1875,475.1875 C 283.84488,475.51619 284.39838,476.0822 284.71875,476.90625 C 284.82554,477.18093 284.91327,477.48243 284.96875,477.8125 C 285.40699,479.13279 285.40625,481.32742 285.40625,484.40625 L 285.40625,492.3125 C 285.40625,510.32499 284.94454,520.21097 284.0625,521.53125 C 283.95432,521.63943 283.85605,521.76474 283.71875,521.875 C 283.58145,521.98526 283.40662,522.07655 283.1875,522.1875 C 282.74371,522.40385 282.09448,522.625 281.65625,522.625 C 281.16114,522.78726 280.81018,522.83375 280.46875,522.9375 C 280.35494,522.97208 280.23595,523.00703 280.125,523.0625 C 279.68676,523.2844 279.46874,523.31177 279.46875,523.75 C 279.46875,523.96635 279.90551,524.15628 280.34375,524.15625 C 280.2328,524.15625 280.4006,524.1833 280.8125,524.15625 C 281.2244,524.1292 281.8735,524.04567 282.75,523.9375 C 284.73043,523.9375 287.13992,523.75001 290.21875,523.75 C 290.93298,523.69453 291.6788,523.62495 292.4375,523.59375 C 294.71359,523.50014 297.16379,523.49998 299.46875,523.5 C 304.30056,523.5 310.00027,523.52812 316.8125,523.75 C 317.90534,521.11498 318.77735,518.91241 319.4375,516.9375 C 319.87575,514.96262 320.09376,513.41013 320.09375,512.75 C 320.09375,512.31175 319.87815,512.09376 319.65625,512.09375 C 319.4399,512.09375 319.00316,512.52419 318.78125,513.40625 C 318.55935,514.06085 318.12575,514.71486 317.6875,515.375 C 316.36721,517.79368 314.38742,519.55546 311.96875,520.4375 C 309.33372,521.314 305.82868,521.74998 301.21875,521.75 C 298.13993,521.75 294.82401,521.53516 291.3125,520.875 C 291.09061,519.11646 290.87499,516.91939 290.875,514.0625 C 290.875,511.42747 290.87499,508.78889 290.875,505.9375 L 290.875,500.875 C 290.875,500.2204 290.8774,499.77886 291.09375,499.5625 C 291.31564,499.3406 291.5329,499.12261 292.1875,498.90625 C 292.84764,498.90625 293.96022,498.90626 295.71875,498.90625 L 300.34375,498.90625 C 303.19513,498.90625 305.39845,498.90864 306.71875,499.125 C 308.25538,499.125 309.33985,499.56177 310,500 C 310.66014,500.43825 311.3149,501.3391 311.53125,502.4375 C 311.75315,503.0921 311.96874,503.74296 311.96875,504.625 C 312.13518,505.28238 312.30467,505.67941 312.46875,505.84375 C 312.52344,505.89853 312.57091,505.9375 312.625,505.9375 C 312.84412,505.9375 313.01474,505.81708 313.125,505.625 C 313.18013,505.52896 313.22235,505.41517 313.25,505.28125 C 313.27765,505.14733 313.28125,505.00879 313.28125,504.84375 C 313.28125,504.84375 313.06249,503.97173 313.0625,502.21875 C 312.84615,500.68212 312.84376,499.34525 312.84375,498.46875 C 312.84375,497.37036 312.84614,496.06475 313.0625,494.75 C 313.2844,493.42971 313.28125,492.53755 313.28125,492.09375 C 313.28125,491.6555 313.06011,491.43752 312.84375,491.4375 C 312.4055,491.4375 312.19064,492.08671 311.96875,492.96875 C 311.7524,494.06714 311.3164,494.96487 310.65625,495.625 C 310.32618,495.84413 309.81991,496.05861 309.1875,496.25 C 308.8713,496.34569 308.53764,496.42164 308.15625,496.5 C 307.77486,496.57836 307.34588,496.66466 306.90625,496.71875 C 306.41253,496.77561 305.88861,496.81177 305.28125,496.84375 C 303.45918,496.9397 301.0915,496.93749 298.125,496.9375 L 294.40625,496.9375 C 293.52975,496.9375 292.66013,496.93749 292,496.9375 C 291.56175,496.9375 291.09375,496.71636 291.09375,496.5 C 290.8774,496.28365 290.87499,495.84764 290.875,495.1875 L 290.875,493.84375 C 290.875,487.69165 291.0906,481.77394 291.3125,475.84375 C 294.82402,475.39995 298.35869,475.18749 301.4375,475.1875 C 304.73267,475.1875 307.36646,475.1899 309.125,475.40625 C 310.87799,475.62815 312.186,476.06176 313.0625,476.5 C 313.94454,477.16015 314.40625,477.80546 314.40625,478.6875 C 314.40625,479.3421 314.37814,480.02495 314.15625,480.46875 C 314.15625,481.12334 313.96876,481.33505 313.96875,481.5625 C 313.96875,481.77885 313.96876,482.00239 313.96875,482.21875 C 313.96875,482.44065 314.18362,482.65625 314.84375,482.65625 C 314.89923,482.65625 314.94851,482.65265 315,482.625 C 315.05149,482.59735 315.08409,482.55513 315.125,482.5 C 315.20682,482.38974 315.28125,482.21913 315.28125,482 C 315.50315,481.77811 315.72117,480.44919 315.9375,478.46875 C 316.37575,476.48831 316.59299,474.7578 317.03125,473.4375 C 312.63768,473.4375 309.13817,473.43751 306.28125,473.4375 C 303.97214,473.4375 301.39158,473.43764 298.3125,473.53125 C 297.28614,473.56245 296.21637,473.60078 295.0625,473.65625 C 290.44704,473.65625 288.46876,473.65626 288.46875,473.65625 C 287.48131,473.65625 286.56256,473.65274 285.65625,473.625 C 285.20309,473.61113 284.75551,473.59371 284.3125,473.5625 C 283.86949,473.53129 283.40838,473.49298 282.96875,473.4375 C 281.21021,473.4375 280.5649,473.43751 280.78125,473.4375 C 280.67169,473.4375 280.57147,473.43065 280.46875,473.4375 z M 823.75,473.4375 C 823.41065,473.45804 823.28123,473.54631 823.28125,473.875 C 823.28125,474.09689 823.71722,474.53126 824.59375,474.53125 C 825.25395,474.75315 825.90231,474.9656 826.5625,475.1875 C 827.439,475.62575 828.09612,476.49222 828.3125,477.8125 C 828.64535,478.80272 828.72921,480.3042 828.75,482.28125 C 828.75693,482.94027 828.78126,483.63654 828.78125,484.40625 L 828.78125,492.3125 C 828.78125,505.82187 828.52584,514.75587 828.03125,518.9375 C 827.94882,519.63444 827.84602,520.22441 827.75,520.65625 C 827.65398,521.08809 827.54706,521.36622 827.4375,521.53125 C 827.32655,521.63943 827.23036,521.76474 827.09375,521.875 C 826.95714,521.98526 826.7816,522.07655 826.5625,522.1875 C 826.1187,522.40385 825.47503,522.625 825.03125,522.625 C 824.70395,522.73317 824.43505,522.78897 824.1875,522.84375 C 823.93995,522.89853 823.7191,522.95156 823.5,523.0625 C 823.17127,523.22893 822.95796,523.27347 822.875,523.46875 C 822.84735,523.53384 822.84375,523.64044 822.84375,523.75 C 822.84375,523.91226 823.06532,524.05401 823.375,524.125 C 823.47823,524.14866 823.6092,524.15626 823.71875,524.15625 C 823.60785,524.15625 823.7756,524.1833 824.1875,524.15625 C 824.5994,524.1292 825.2485,524.04567 826.125,523.9375 C 828.1054,523.9375 830.518,523.75001 833.375,523.75 C 834.1447,523.69453 834.91494,523.62495 835.6875,523.59375 C 838.00519,523.50014 840.34117,523.49998 842.8125,523.5 C 847.6443,523.5 853.37846,523.52812 859.96875,523.75 C 861.28355,521.11498 862.15543,518.91241 862.59375,516.9375 C 863.25385,514.96262 863.46873,513.41013 863.46875,512.75 C 863.46875,512.31175 863.25316,512.09376 863.03125,512.09375 C 862.81485,512.09375 862.37262,512.52419 862.15625,513.40625 C 861.93435,514.06085 861.50082,514.71486 861.0625,515.375 C 859.7422,517.79368 857.76,519.55546 855.125,520.4375 C 852.7063,521.314 849.20364,521.74998 844.59375,521.75 C 841.51485,521.75 838.20217,521.53516 834.46875,520.875 C 834.46875,519.11646 834.24999,516.91939 834.25,514.0625 C 834.25,511.42747 834.24999,508.78889 834.25,505.9375 L 834.25,500.875 C 834.25,500.2204 834.25237,499.77886 834.46875,499.5625 C 834.46875,499.3406 834.90239,499.12261 835.5625,498.90625 C 836.2227,498.90625 837.33525,498.90626 839.09375,498.90625 L 843.6875,498.90625 C 846.5444,498.90625 848.74221,498.90864 850.0625,499.125 C 850.44667,499.125 850.82687,499.1703 851.15625,499.21875 C 851.48563,499.2672 851.78791,499.32338 852.0625,499.40625 C 852.61169,499.57198 853.04489,499.78089 853.375,500 C 854.0351,500.43825 854.46807,501.3391 854.90625,502.4375 C 855.12815,503.0921 855.12732,503.74296 855.34375,504.625 C 855.51018,505.28238 855.6789,505.67941 855.84375,505.84375 C 855.8987,505.89853 855.94452,505.9375 856,505.9375 C 856.21915,505.9375 856.38974,505.81708 856.5,505.625 C 856.55513,505.52896 856.59735,505.41517 856.625,505.28125 C 856.65265,505.14733 856.65625,505.00879 856.65625,504.84375 C 856.65625,504.84375 856.43748,503.97173 856.4375,502.21875 C 856.2211,500.68212 856.21876,499.34525 856.21875,498.46875 C 856.21875,497.37036 856.22108,496.06475 856.4375,494.75 C 856.6594,493.42971 856.65627,492.53755 856.65625,492.09375 C 856.65625,491.6555 856.43516,491.43752 856.21875,491.4375 C 855.77495,491.4375 855.56562,492.08671 855.34375,492.96875 C 855.12735,494.06714 854.68584,494.96487 854.03125,495.625 C 853.7012,495.84413 853.1949,496.05861 852.5625,496.25 C 852.2463,496.34569 851.91263,496.42164 851.53125,496.5 C 851.14987,496.57836 850.72087,496.66466 850.28125,496.71875 C 849.78752,496.77561 849.26361,496.81177 848.65625,496.84375 C 846.83418,496.9397 844.46656,496.93749 841.5,496.9375 L 837.78125,496.9375 C 836.68285,496.9375 835.99835,496.93749 835.34375,496.9375 C 834.89995,496.9375 834.46877,496.71636 834.46875,496.5 C 834.25235,496.28365 834.24999,495.84764 834.25,495.1875 L 834.25,493.84375 C 834.25,487.69165 834.24919,481.77394 834.6875,475.84375 C 838.199,475.39995 841.51728,475.18749 844.8125,475.1875 C 848.1077,475.1875 850.74713,475.1899 852.5,475.40625 C 854.2586,475.62815 855.56098,476.06176 856.4375,476.5 C 857.3195,477.16015 857.74999,477.80546 857.75,478.6875 C 857.75,479.3421 857.53126,480.02495 857.53125,480.46875 C 857.53125,481.12334 857.31252,481.33505 857.3125,481.5625 C 857.3125,481.77885 857.31252,482.00239 857.3125,482.21875 C 857.3125,482.44065 857.53047,482.65625 857.96875,482.65625 C 858.0797,482.65625 858.19856,482.65265 858.28125,482.625 C 858.36394,482.59735 858.41397,482.55513 858.46875,482.5 C 858.5783,482.38974 858.62501,482.21913 858.625,482 C 858.8469,481.77811 859.09061,480.44919 859.3125,478.46875 C 859.5344,476.48831 859.96797,474.7578 860.40625,473.4375 C 856.01265,473.4375 852.47628,473.43751 849.625,473.4375 C 847.31583,473.4375 844.6416,473.43764 841.59375,473.53125 C 840.5778,473.56245 839.53587,473.60078 838.4375,473.65625 C 833.822,473.65625 831.62184,473.65626 831.84375,473.65625 C 830.8563,473.65625 829.9063,473.65274 829,473.625 C 828.54685,473.61113 828.09926,473.59371 827.65625,473.5625 C 827.21324,473.53129 826.78338,473.49298 826.34375,473.4375 C 824.58515,473.4375 823.93436,473.43751 824.15625,473.4375 C 823.99122,473.4375 823.86312,473.43065 823.75,473.4375 z M 897.75,474.3125 C 898.21669,474.3125 898.6733,474.30899 899.125,474.34375 C 899.13598,474.34434 899.14527,474.34313 899.15625,474.34375 C 899.58637,474.37766 899.99208,474.43373 900.40625,474.5 C 900.41625,474.50212 900.42754,474.49783 900.4375,474.5 C 900.45923,474.50474 900.4785,474.52627 900.5,474.53125 C 900.52956,474.5381 900.56464,474.52393 900.59375,474.53125 C 901.83677,474.74648 903.00905,475.13103 904.0625,475.65625 C 904.08264,475.66669 904.10494,475.67694 904.125,475.6875 C 904.17953,475.71513 904.22732,475.75275 904.28125,475.78125 C 905.00081,476.17641 905.6779,476.63174 906.3125,477.1875 C 906.53577,477.39015 906.76403,477.5871 906.96875,477.8125 C 907.24335,478.11483 907.50366,478.42677 907.75,478.75 C 909.4744,481.01264 910.50001,483.82033 910.5,487.28125 C 910.5,490.57642 909.16555,493.21022 906.96875,494.96875 C 905.21025,496.28904 903.22876,497.15549 900.59375,497.59375 C 900.4255,497.62774 900.262,497.63188 900.09375,497.65625 C 899.72321,497.69929 899.3286,497.75685 898.9375,497.78125 C 898.89527,497.78338 898.85473,497.77943 898.8125,497.78125 C 898.32436,497.80908 897.83396,497.8125 897.3125,497.8125 C 895.3321,497.8125 893.1343,497.59209 890.9375,496.9375 C 890.9375,484.85521 891.15311,478.03905 891.375,476.71875 C 891.53932,476.0593 891.91133,475.56114 892.53125,475.1875 C 892.73789,475.06295 892.98927,474.93996 893.25,474.84375 C 894.29291,474.4589 895.77235,474.3125 897.75,474.3125 z M 231.5625,474.75 C 235.29592,474.75 238.83057,475.40161 241.6875,476.5 C 244.76633,477.60394 247.17582,479.36017 249.15625,481.5625 C 251.35303,483.53738 252.87036,486.17989 253.96875,489.03125 C 255.06714,492.11008 255.53125,495.17597 255.53125,498.6875 C 255.53125,502.20456 255.06714,505.48682 253.96875,508.34375 C 253.09226,511.20067 251.56863,513.83764 249.59375,515.8125 C 247.83522,518.00928 245.42182,519.55784 242.78125,520.65625 C 241.23437,521.25097 239.67745,521.69746 238.0625,522 C 237.7715,522.0417 237.4785,522.08615 237.1875,522.125 C 236.42938,522.22622 235.69562,522.32813 234.9375,522.375 C 234.55845,522.3932 234.17204,522.40625 233.78125,522.40625 C 233.01155,522.40625 232.24895,522.4056 231.53125,522.375 C 229.37816,522.28321 227.4661,522.02637 225.65625,521.53125 C 223.45393,520.87111 222.35004,520.2258 221.90625,519.34375 C 221.7426,519.1801 221.61285,518.65228 221.5,517.78125 C 221.44357,517.34573 221.38871,516.82854 221.34375,516.21875 C 221.11893,513.16978 221.03125,507.93378 221.03125,500.65625 C 221.03125,492.96752 221.25,487.26781 221.25,483.3125 C 221.46635,479.35719 221.6899,477.15701 221.90625,476.71875 C 222.35004,476.28051 223.24146,475.85005 225,475.40625 C 225.43963,475.29669 225.88058,475.20691 226.375,475.125 C 227.85824,474.87927 229.58624,474.75001 231.5625,474.75 z M 1088,474.75 C 1091.7334,474.75 1095.2369,475.40161 1098.0938,476.5 C 1101.1726,477.60394 1103.5821,479.36017 1105.5625,481.5625 C 1107.7593,483.53738 1109.3079,486.17989 1110.4062,489.03125 C 1111.5047,492.11008 1111.9375,495.17597 1111.9375,498.6875 C 1111.9375,502.20456 1111.5047,505.48682 1110.4062,508.34375 C 1109.5242,511.20067 1107.9749,513.83764 1106,515.8125 C 1104.2415,518.00928 1101.8225,519.55784 1099.1875,520.65625 C 1097.6311,521.25465 1096.0633,521.69763 1094.4375,522 C 1094.0895,522.0498 1093.7542,522.11109 1093.4062,522.15625 C 1092.7168,522.24571 1092.0332,522.33238 1091.3438,522.375 C 1090.9647,522.3932 1090.5783,522.40625 1090.1875,522.40625 C 1089.4178,522.40625 1088.6726,522.4056 1087.9375,522.375 C 1085.7322,522.28321 1083.7101,522.02637 1082.0625,521.53125 C 1079.8657,520.87111 1078.5344,520.2258 1078.3125,519.34375 C 1078.1474,519.1801 1078.0194,518.65228 1077.9062,517.78125 C 1077.8497,517.34573 1077.7949,516.82854 1077.75,516.21875 C 1077.5254,513.16978 1077.4375,507.93378 1077.4375,500.65625 C 1077.4375,492.96752 1077.4399,487.26781 1077.6562,483.3125 C 1077.8782,479.35719 1078.0961,477.15701 1078.3125,476.71875 C 1078.5344,476.28051 1079.6477,475.85005 1081.4062,475.40625 C 1081.7904,475.29669 1082.2039,475.20691 1082.6875,475.125 C 1084.1382,474.87927 1086.0196,474.75001 1088,474.75 z M 362.28125,475.1875 C 362.99658,475.1875 363.71443,475.24104 364.40625,475.3125 C 364.45738,475.31918 364.51137,475.30542 364.5625,475.3125 C 366.65727,475.60254 368.74787,476.20445 370.84375,477.15625 C 373.47877,478.69843 375.89697,480.46188 378.09375,482.875 C 380.06864,485.29367 381.83913,488.14548 382.9375,491.21875 C 384.03589,494.51392 384.6875,497.82667 384.6875,501.34375 C 384.6875,505.29352 383.82029,508.79618 382.5,511.875 C 381.15545,514.75827 379.2929,516.97389 376.9375,518.65625 C 376.60101,518.89659 376.26337,519.12463 375.90625,519.34375 C 373.76356,520.50039 371.38586,521.27494 368.84375,521.59375 C 368.42007,521.64688 367.96299,521.69177 367.53125,521.71875 C 367.09951,521.74573 366.68894,521.75 366.25,521.75 C 365.04066,521.75 363.87613,521.69559 362.75,521.53125 C 362.33322,521.47043 361.91059,521.37513 361.5,521.28125 C 361.49009,521.27858 361.47866,521.28393 361.46875,521.28125 C 360.76444,521.09106 360.08575,520.87506 359.4375,520.65625 C 357.24072,520.00166 355.26168,518.91162 353.28125,517.375 C 351.30637,516.06026 349.7554,514.28737 348.21875,512.3125 C 346.46576,509.89383 344.93901,507.26631 344.0625,504.1875 C 342.96411,501.11422 342.5,498.04442 342.5,495.1875 C 342.5,492.33057 342.93601,489.44994 343.8125,487.03125 C 344.69454,484.61812 346.24147,482.44604 348,480.6875 C 349.75299,478.92896 351.73757,477.60394 354.15625,476.5 C 356.79128,475.62351 359.42432,475.18749 362.28125,475.1875 z M 1130.5938,514.9375 C 1129.7173,517.13428 1128.4124,518.6797 1126.4375,520 L 1126.4375,520.65625 C 1128.0851,521.15136 1129.3424,522.14151 1130.0625,523.625 C 1130.3025,524.1195 1130.4842,524.67659 1130.5938,525.28125 L 1131.25,525.28125 C 1131.3325,525.03439 1131.4526,524.79582 1131.5625,524.5625 C 1132.3319,522.92928 1133.7635,521.61733 1135.875,520.65625 L 1135.875,520 C 1135.6281,519.88974 1135.3898,519.76221 1135.1562,519.625 C 1133.5211,518.66451 1132.1865,517.04898 1131.0312,514.9375 L 1130.5938,514.9375 z"
         transform="translate(493.42177,-804.1808)"
         id="path3598"
         style="fill:#003e8c;fill-opacity:1;fill-rule:nonzero;stroke:none" />
      <path
         d="M 1077.6856,-549.77221 L 1080.5425,-549.77221 C 1083.8377,-549.77221 1086.689,-550.43236 1088.2312,-551.53075 C 1089.7679,-552.85104 1091.9646,-556.14621 1091.9646,-559.00313 C 1091.9646,-561.63816 1089.9842,-564.48953 1088.4476,-565.80982 C 1086.9109,-566.90821 1084.2759,-567.78471 1080.5425,-567.78471 L 1077.6856,-567.78471 L 1077.6856,-549.77221 z M 1077.6856,-422.1426 L 1077.6856,-432.9046 C 1082.2955,-432.02811 1087.3492,-431.80621 1092.4029,-431.80621 C 1144.2491,-431.80621 1186.8645,-474.42153 1186.8645,-526.48967 C 1186.8645,-578.55226 1144.2491,-621.16758 1092.4029,-621.16758 C 1087.3492,-621.16758 1082.2955,-620.72933 1077.6856,-620.06919 L 1077.6856,-630.83674 C 1082.2955,-631.49134 1087.3492,-631.71324 1092.4029,-631.71324 C 1150.1793,-631.71324 1197.4101,-584.48246 1197.4101,-526.48967 C 1197.4101,-468.49134 1150.1793,-421.04421 1092.4029,-421.04421 C 1087.3492,-421.04421 1082.2955,-421.48245 1077.6856,-422.1426 z M 1077.6856,-444.1104 L 1077.6856,-538.78831 L 1090.428,-520.99772 C 1088.8858,-518.80094 1087.7874,-516.38226 1086.689,-514.18548 C 1085.1524,-510.89031 1084.7142,-506.71865 1084.7142,-502.54143 C 1084.7142,-498.14787 1085.1524,-493.97621 1086.689,-490.45914 C 1088.2312,-486.72572 1090.428,-483.20866 1093.2794,-480.57363 C 1096.1363,-477.72225 1099.4315,-475.51992 1103.1649,-473.98329 C 1106.682,-472.66855 1110.8536,-472.0084 1115.691,-472.0084 C 1125.1327,-472.0084 1131.5067,-474.86533 1136.9986,-480.35728 C 1142.2687,-485.84923 1145.7858,-493.53796 1145.7858,-503.42347 C 1145.7858,-504.29997 1145.5639,-504.73821 1145.5639,-505.62026 L 1117.8878,-505.62026 L 1117.8878,-494.63635 L 1131.5067,-494.63635 C 1131.0684,-491.55753 1128.4279,-488.70616 1125.5765,-486.72572 C 1122.9359,-484.75084 1119.2025,-483.20866 1115.4691,-483.20866 C 1110.6373,-483.20866 1106.2437,-484.31259 1103.6087,-487.38587 C 1100.9681,-490.45914 1096.7965,-495.73474 1096.7965,-501.22669 C 1096.7965,-506.49675 1098.9932,-511.32856 1101.6283,-514.62373 C 1104.0469,-517.48065 1108.2186,-520.77582 1113.0504,-520.77582 C 1115.4691,-520.77582 1120.7391,-520.55392 1122.4977,-519.46108 C 1124.4781,-518.57904 1127.9896,-516.38226 1129.3099,-514.40738 L 1138.3134,-523.85464 C 1136.1166,-526.26777 1133.4816,-528.2482 1130.8466,-529.34105 C 1126.453,-531.75972 1121.1829,-532.85811 1115.691,-532.85811 C 1111.0755,-532.85811 1107.1202,-532.19797 1103.6087,-530.66133 C 1102.7267,-530.22309 1101.4119,-529.56294 1100.7518,-529.34105 L 1092.4029,-540.54685 C 1096.1363,-542.30538 1098.9932,-545.1623 1101.4119,-548.23558 C 1103.6087,-550.87061 1104.7071,-555.04782 1104.7071,-559.65773 C 1104.7071,-562.2983 1104.0469,-565.37158 1102.9485,-567.78471 C 1101.6283,-570.42528 1099.2151,-572.40016 1097.0184,-573.9368 C 1095.2598,-575.47344 1089.1077,-577.67022 1086.0344,-578.33036 C 1084.7142,-578.33036 1081.419,-578.33036 1077.6856,-578.33036 L 1077.6856,-608.86894 C 1082.2955,-609.74543 1087.3492,-610.18368 1092.4029,-610.18368 C 1138.097,-610.18368 1175.8806,-572.40016 1175.8806,-526.48967 C 1175.8806,-480.35728 1138.097,-442.79011 1092.4029,-442.79011 C 1087.3492,-442.79011 1082.2955,-443.22836 1077.6856,-444.1104 z M 1063.4065,-549.77221 L 1077.6856,-549.77221 L 1077.6856,-567.78471 L 1063.4065,-567.78471 L 1063.4065,-549.77221 z M 1077.6856,-630.83674 L 1077.6856,-620.06919 C 1032.2133,-612.81871 997.50308,-573.49855 997.50308,-526.48967 C 997.50308,-479.47524 1032.2133,-439.93319 1077.6856,-432.9046 L 1077.6856,-422.1426 C 1026.2776,-429.39308 986.73552,-473.32869 986.73552,-526.48967 C 986.73552,-579.42875 1026.2776,-623.58626 1077.6856,-630.83674 z M 1077.6856,-608.86894 L 1077.6856,-578.33036 C 1074.3904,-578.33036 1070.657,-578.33036 1067.5782,-578.33036 L 1050.6641,-578.33036 L 1050.6641,-517.9189 L 1063.4065,-517.9189 L 1063.4065,-539.01021 L 1077.4637,-539.01021 L 1077.6856,-538.78831 L 1077.6856,-444.1104 C 1038.3599,-451.13899 1008.487,-485.40544 1008.487,-526.48967 C 1008.487,-567.34646 1038.3599,-601.84035 1077.6856,-608.86894"
         id="path3854"
         style="fill:#003e8c;fill-opacity:1;fill-rule:nonzero;stroke:none" />
    </g>
  </g>
</svg>
