<?xml version="1.0" encoding="UTF-8" standalone="no"?>
<svg
   xmlns:dc="http://purl.org/dc/elements/1.1/"
   xmlns:cc="http://creativecommons.org/ns#"
   xmlns:rdf="http://www.w3.org/1999/02/22-rdf-syntax-ns#"
   xmlns:svg="http://www.w3.org/2000/svg"
   xmlns="http://www.w3.org/2000/svg"
   viewBox="0 0 43.248268 15.4028"
   height="15.4028"
   width="43.248268"
   xml:space="preserve"
   id="svg2"
   version="1.1"><metadata
     id="metadata8"><rdf:RDF><cc:Work
         rdf:about=""><dc:format>image/svg+xml</dc:format><dc:type
           rdf:resource="http://purl.org/dc/dcmitype/StillImage" /><dc:title></dc:title></cc:Work></rdf:RDF></metadata><defs
     id="defs6"><clipPath
       id="clipPath18"
       clipPathUnits="userSpaceOnUse"><path
         id="path16"
         d="M 0,11.552 H 32.436 V 0 H 0 Z" /></clipPath><clipPath
       id="clipPath42"
       clipPathUnits="userSpaceOnUse"><path
         id="path40"
         d="M 0,11.552 H 32.436 V 0 H 0 Z" /></clipPath></defs><g
     transform="matrix(1.3333333,0,0,-1.3333333,0,15.4028)"
     id="g10"><g
       id="g12"><g
         clip-path="url(#clipPath18)"
         id="g14"><g
           transform="translate(11.0524,5.7761)"
           id="g20"><path
             id="path22"
             style="fill:none;stroke:#a22752;stroke-width:1;stroke-linecap:round;stroke-linejoin:round;stroke-miterlimit:10;stroke-dasharray:none;stroke-opacity:1"
             d="m 0,0 c 0,-2.914 -2.362,-5.276 -5.276,-5.276 -2.914,0 -5.277,2.362 -5.277,5.276 0,2.914 2.363,5.276 5.277,5.276 C -2.362,5.276 0,2.914 0,0 Z" /></g><g
           transform="translate(31.9362,5.7761)"
           id="g24"><path
             id="path26"
             style="fill:none;stroke:#a22752;stroke-width:1;stroke-linecap:round;stroke-linejoin:round;stroke-miterlimit:10;stroke-dasharray:none;stroke-opacity:1"
             d="m 0,0 c 0,-2.914 -2.362,-5.276 -5.276,-5.276 -2.913,0 -5.276,2.362 -5.276,5.276 0,2.914 2.363,5.276 5.276,5.276 C -2.362,5.276 0,2.914 0,0 Z" /></g></g></g><text
       id="text30"
       style="font-variant:normal;font-weight:bold;font-stretch:normal;font-size:5.56050014px;font-family:'Blogger Sans';-inkscape-font-specification:BloggerSans-Bold;writing-mode:lr-tb;fill:#a22752;fill-opacity:1;fill-rule:nonzero;stroke:none"
       transform="matrix(1,0,0,-1,2.6396,4.0864)"><tspan
         style="-inkscape-font-specification:'sans-serif Bold';font-family:sans-serif;font-weight:bold;font-style:normal;font-stretch:normal;font-variant:normal"
         id="tspan28"
         y="0"
         x="0 3.1694851">Ка</tspan></text>
<text
       id="text34"
       style="font-variant:normal;font-weight:bold;font-stretch:normal;font-size:5.56050014px;font-family:'Blogger Sans';-inkscape-font-specification:BloggerSans-Bold;writing-mode:lr-tb;fill:#a22752;fill-opacity:1;fill-rule:nonzero;stroke:none"
       transform="matrix(1,0,0,-1,23.046635,4.1586865)"><tspan
         style="-inkscape-font-specification:'sans-serif Bold';font-family:sans-serif;font-weight:bold;font-style:normal;font-stretch:normal;font-variant:normal"
         id="tspan32"
         y="0"
         x="0 4.2204194">Mg</tspan></text>
<g
       id="g36"><g
         clip-path="url(#clipPath42)"
         id="g38"><g
           transform="translate(18.527,8.0173)"
           id="g44"><path
             id="path46"
             style="fill:none;stroke:#a22752;stroke-width:1;stroke-linecap:round;stroke-linejoin:round;stroke-miterlimit:10;stroke-dasharray:none;stroke-opacity:1"
             d="M 0,0 -4.617,-4.482" /></g><g
           transform="translate(13.9772,8.0847)"
           id="g48"><path
             id="path50"
             style="fill:none;stroke:#a22752;stroke-width:1;stroke-linecap:round;stroke-linejoin:round;stroke-miterlimit:10;stroke-dasharray:none;stroke-opacity:1"
             d="M 0,0 4.482,-4.617" /></g></g></g></g></svg>