<?xml version="1.0" encoding="UTF-8" standalone="no"?>
<svg
   xmlns:dc="http://purl.org/dc/elements/1.1/"
   xmlns:cc="http://creativecommons.org/ns#"
   xmlns:rdf="http://www.w3.org/1999/02/22-rdf-syntax-ns#"
   xmlns:svg="http://www.w3.org/2000/svg"
   xmlns="http://www.w3.org/2000/svg"
   viewBox="0 0 31.5924 29.4368"
   height="29.4368"
   width="31.5924"
   xml:space="preserve"
   id="svg2"
   version="1.1"><metadata
     id="metadata8"><rdf:RDF><cc:Work
         rdf:about=""><dc:format>image/svg+xml</dc:format><dc:type
           rdf:resource="http://purl.org/dc/dcmitype/StillImage" /><dc:title></dc:title></cc:Work></rdf:RDF></metadata><defs
     id="defs6"><clipPath
       id="clipPath18"
       clipPathUnits="userSpaceOnUse"><path
         id="path16"
         d="M 0,22.078 H 23.694 V 0 H 0 Z" /></clipPath></defs><g
     transform="matrix(1.3333333,0,0,-1.3333333,0,29.4368)"
     id="g10"><g
       id="g12"><g
         clip-path="url(#clipPath18)"
         id="g14"><g
           transform="translate(14.1906,5.4387)"
           id="g20"><path
             id="path22"
             style="fill:none;stroke:#a22752;stroke-width:1;stroke-linecap:round;stroke-linejoin:round;stroke-miterlimit:10;stroke-dasharray:none;stroke-opacity:1"
             d="m 0,0 c 0,-0.976 -0.79,-1.766 -1.766,-1.766 -0.975,0 -1.765,0.79 -1.765,1.766 0,0.976 0.79,1.766 1.765,1.766 C -0.79,1.766 0,0.976 0,0 Z" /></g><g
           transform="translate(10.5036,21.3479)"
           id="g24"><path
             id="path26"
             style="fill:none;stroke:#a22752;stroke-width:1;stroke-linecap:round;stroke-linejoin:round;stroke-miterlimit:10;stroke-dasharray:none;stroke-opacity:1"
             d="m 0,0 c 0,0 1.496,-3.207 0.699,-5.368 -0.797,-2.161 0.032,-2.817 0.234,-3.942 0.202,-1.125 0.035,-3.959 -2.881,-4.209 -2.917,-0.25 -5.789,0.404 -7.042,-1.042 -1.253,-1.445 -0.991,-4.494 -0.991,-4.494" /></g><g
           transform="translate(13.7492,21.5774)"
           id="g28"><path
             id="path30"
             style="fill:none;stroke:#a22752;stroke-width:1;stroke-linecap:round;stroke-linejoin:round;stroke-miterlimit:10;stroke-dasharray:none;stroke-opacity:1"
             d="m 0,0 c 0,0 1.14,-4.79 -0.194,-6.54 0,0 2.292,3.583 5.709,3.042 3.416,-0.542 5.875,-7.375 1.833,-12.458 -4.042,-5.084 -7.896,-6.114 -12.343,-4.269 -4.446,1.847 -3.851,2.854 -5.116,2.852 -1.125,-0.002 -0.368,-2.939 -0.368,-2.939" /></g></g></g></g></svg>