<?xml version="1.0" encoding="UTF-8" standalone="no"?>
<svg
   xmlns:dc="http://purl.org/dc/elements/1.1/"
   xmlns:cc="http://creativecommons.org/ns#"
   xmlns:rdf="http://www.w3.org/1999/02/22-rdf-syntax-ns#"
   xmlns:svg="http://www.w3.org/2000/svg"
   xmlns="http://www.w3.org/2000/svg"
   viewBox="0 0 22.375067 26.915068"
   height="26.915068"
   width="22.375067"
   xml:space="preserve"
   id="svg2"
   version="1.1"><metadata
     id="metadata8"><rdf:RDF><cc:Work
         rdf:about=""><dc:format>image/svg+xml</dc:format><dc:type
           rdf:resource="http://purl.org/dc/dcmitype/StillImage" /><dc:title></dc:title></cc:Work></rdf:RDF></metadata><defs
     id="defs6"><clipPath
       id="clipPath18"
       clipPathUnits="userSpaceOnUse"><path
         id="path16"
         d="M 0,20.186 H 16.781 V 0 H 0 Z" /></clipPath><clipPath
       id="clipPath42"
       clipPathUnits="userSpaceOnUse"><path
         id="path40"
         d="M 0,20.186 H 16.781 V 0 H 0 Z" /></clipPath></defs><g
     transform="matrix(1.3333333,0,0,-1.3333333,0,26.915067)"
     id="g10"><g
       id="g12"><g
         clip-path="url(#clipPath18)"
         id="g14"><g
           transform="translate(9.4375,15.2173)"
           id="g20"><path
             id="path22"
             style="fill:none;stroke:#a22752;stroke-width:1;stroke-linecap:round;stroke-linejoin:round;stroke-miterlimit:10;stroke-dasharray:none;stroke-opacity:1"
             d="m 0,0 c 0,-2.468 -2,-4.469 -4.469,-4.469 -2.468,0 -4.469,2.001 -4.469,4.469 0,2.468 2.001,4.469 4.469,4.469 C -2,4.469 0,2.468 0,0 Z" /></g><g
           transform="translate(16.2813,4.9687)"
           id="g24"><path
             id="path26"
             style="fill:none;stroke:#a22752;stroke-width:1;stroke-linecap:round;stroke-linejoin:round;stroke-miterlimit:10;stroke-dasharray:none;stroke-opacity:1"
             d="m 0,0 c 0,-2.468 -2,-4.469 -4.469,-4.469 -2.468,0 -4.469,2.001 -4.469,4.469 0,2.468 2.001,4.469 4.469,4.469 C -2,4.469 0,2.468 0,0 Z" /></g></g></g><text
       id="text30"
       style="font-variant:normal;font-weight:bold;font-stretch:normal;font-size:4.70970011px;font-family:'Blogger Sans';-inkscape-font-specification:BloggerSans-Bold;writing-mode:lr-tb;fill:#a22752;fill-opacity:1;fill-rule:nonzero;stroke:none"
       transform="matrix(1,0,0,-1,2.3125,13.7861)"><tspan
         style="-inkscape-font-specification:'sans-serif Bold';font-family:sans-serif;font-weight:bold;font-style:normal;font-stretch:normal;font-variant:normal"
         id="tspan28"
         y="0"
         x="0 2.6845291">Ка</tspan></text>
<text
       id="text34"
       style="font-variant:normal;font-weight:bold;font-stretch:normal;font-size:4.70970011px;font-family:'Blogger Sans';-inkscape-font-specification:BloggerSans-Bold;writing-mode:lr-tb;fill:#a22752;fill-opacity:1;fill-rule:nonzero;stroke:none"
       transform="matrix(1,0,0,-1,8.7506599,3.5990189)"><tspan
         style="-inkscape-font-specification:'sans-serif Bold';font-family:sans-serif;font-weight:bold;font-style:normal;font-stretch:normal;font-variant:normal"
         id="tspan32"
         y="0"
         x="0 3.5746622">Mg</tspan></text>
<g
       id="g36"><g
         clip-path="url(#clipPath42)"
         id="g38"><g
           transform="translate(4.0625,7.0469)"
           id="g44"><path
             id="path46"
             style="fill:none;stroke:#a22752;stroke-width:1;stroke-linecap:round;stroke-linejoin:round;stroke-miterlimit:10;stroke-dasharray:none;stroke-opacity:1"
             d="m 0,0 c 0,-0.656 -0.532,-1.187 -1.187,-1.187 -0.656,0 -1.188,0.531 -1.188,1.187 0,0.656 0.532,1.187 1.188,1.187 C -0.532,1.187 0,0.656 0,0 Z" /></g><g
           transform="translate(13.3125,18.4985)"
           id="g48"><path
             id="path50"
             style="fill:none;stroke:#a22752;stroke-width:1;stroke-linecap:round;stroke-linejoin:round;stroke-miterlimit:10;stroke-dasharray:none;stroke-opacity:1"
             d="m 0,0 c 0,-0.656 -0.532,-1.187 -1.187,-1.187 -0.656,0 -1.188,0.531 -1.188,1.187 0,0.656 0.532,1.187 1.188,1.187 C -0.532,1.187 0,0.656 0,0 Z" /></g></g></g></g></svg>