<?xml version="1.0" encoding="UTF-8" standalone="no"?>
<svg
   xmlns:dc="http://purl.org/dc/elements/1.1/"
   xmlns:cc="http://creativecommons.org/ns#"
   xmlns:rdf="http://www.w3.org/1999/02/22-rdf-syntax-ns#"
   xmlns:svg="http://www.w3.org/2000/svg"
   xmlns="http://www.w3.org/2000/svg"
   viewBox="0 0 29.073334 33.142399"
   height="33.142399"
   width="29.073334"
   xml:space="preserve"
   id="svg2"
   version="1.1"><metadata
     id="metadata8"><rdf:RDF><cc:Work
         rdf:about=""><dc:format>image/svg+xml</dc:format><dc:type
           rdf:resource="http://purl.org/dc/dcmitype/StillImage" /><dc:title></dc:title></cc:Work></rdf:RDF></metadata><defs
     id="defs6"><clipPath
       id="clipPath18"
       clipPathUnits="userSpaceOnUse"><path
         id="path16"
         d="M 0,24.857 H 21.805 V 0 H 0 Z" /></clipPath></defs><g
     transform="matrix(1.3333333,0,0,-1.3333333,0,33.1424)"
     id="g10"><g
       id="g12"><g
         clip-path="url(#clipPath18)"
         id="g14"><g
           transform="translate(9.1602,3.3567)"
           id="g20"><path
             id="path22"
             style="fill:none;stroke:#a22752;stroke-width:1;stroke-linecap:round;stroke-linejoin:round;stroke-miterlimit:10;stroke-dasharray:none;stroke-opacity:1"
             d="M 0,0 H -6.271 L -8.66,21 H 5.09 L 3.87,10.3" /></g><g
           transform="translate(21.3048,7.177)"
           id="g24"><path
             id="path26"
             style="fill:none;stroke:#a22752;stroke-width:1;stroke-linecap:round;stroke-linejoin:round;stroke-miterlimit:10;stroke-dasharray:none;stroke-opacity:1"
             d="m 0,0 c 0,-3.688 -2.989,-6.677 -6.677,-6.677 -3.687,0 -6.677,2.989 -6.677,6.677 0,3.687 2.99,6.676 6.677,6.676 C -2.989,6.676 0,3.687 0,0 Z" /></g><g
           transform="translate(8.9376,10.4963)"
           id="g28"><path
             id="path30"
             style="fill:none;stroke:#a22752;stroke-width:1;stroke-linecap:round;stroke-linejoin:round;stroke-miterlimit:10;stroke-dasharray:none;stroke-opacity:1"
             d="M 0,0 9.052,-8.839" /></g><g
           transform="translate(10.5079,12.0657)"
           id="g32"><path
             id="path34"
             style="fill:none;stroke:#a22752;stroke-width:1;stroke-linecap:round;stroke-linejoin:round;stroke-miterlimit:10;stroke-dasharray:none;stroke-opacity:1"
             d="M 0,0 9.055,-8.842" /></g><g
           transform="translate(1.253,17.7375)"
           id="g36"><path
             id="path38"
             style="fill:none;stroke:#a22752;stroke-width:1;stroke-linecap:round;stroke-linejoin:round;stroke-miterlimit:10;stroke-dasharray:none;stroke-opacity:1"
             d="M 0,0 C 0,0 3.202,2.491 6.122,0.741 9.042,-1.009 12.042,0 12.042,0" /></g></g></g></g></svg>